<?xml version="1.0" standalone="no"?>
<!DOCTYPE svg PUBLIC "-//W3C//DTD SVG 20010904//EN"
 "http://www.w3.org/TR/2001/REC-SVG-20010904/DTD/svg10.dtd">
<svg version="1.0" xmlns="http://www.w3.org/2000/svg"
 width="512.000000pt" height="512.000000pt" viewBox="0 0 512.000000 512.000000"
 preserveAspectRatio="xMidYMid meet">
<metadata>
Created by potrace 1.11, written by Peter Selinger 2001-2013
</metadata>
<g transform="translate(0.000000,512.000000) scale(0.100000,-0.100000)"
fill="#000000" stroke="none">
<path d="M996 5104 c-241 -44 -465 -162 -642 -338 -138 -138 -233 -291 -294
-474 -62 -186 -60 -122 -60 -1732 0 -1610 -2 -1546 60 -1732 61 -183 156 -336
294 -474 138 -138 291 -233 474 -294 186 -62 122 -60 1732 -60 1610 0 1546 -2
1732 60 183 61 336 156 474 294 138 138 233 291 294 474 62 186 60 122 60
1732 0 1610 2 1546 -60 1732 -61 183 -156 336 -294 474 -138 138 -291 233
-474 294 -186 62 -120 60 -1741 59 -1232 -1 -1489 -3 -1555 -15z m3345 -716
c83 -28 120 -82 120 -174 0 -99 -49 -211 -161 -366 -25 -34 -215 -233 -423
-443 l-378 -380 80 -270 c156 -525 231 -822 231 -916 -1 -97 -82 -265 -201
-414 -69 -87 -108 -115 -163 -115 -64 0 -96 44 -220 305 -60 127 -164 353
-231 503 -67 151 -125 274 -129 274 -4 0 -186 -170 -403 -378 l-396 -377 7
-121 c3 -67 7 -197 8 -291 1 -167 0 -171 -27 -225 -37 -74 -114 -177 -174
-233 -38 -35 -58 -47 -81 -47 -42 0 -65 14 -78 47 -19 46 -78 295 -126 528
-55 261 -54 257 -64 272 -4 6 -124 35 -267 63 -378 75 -551 118 -582 144 -32
27 -34 77 -5 115 30 41 151 139 227 184 l70 42 326 0 326 0 387 375 c212 206
383 377 378 381 -4 4 -86 44 -182 89 -407 191 -861 420 -890 448 -37 37 -41
97 -11 146 57 91 328 260 464 288 44 9 68 8 157 -11 159 -34 379 -99 757 -223
l343 -112 332 330 c334 330 415 399 561 479 147 81 323 116 418 83z"/>
</g>
</svg>
