<?xml version="1.0" encoding="utf-8"?>
<!-- Generator: Adobe Illustrator 19.2.1, SVG Export Plug-In . SVG Version: 6.00 Build 0)  -->
<!DOCTYPE svg PUBLIC "-//W3C//DTD SVG 1.1//EN" "http://www.w3.org/Graphics/SVG/1.1/DTD/svg11.dtd">
<svg version="1.1" id="Layer_1" xmlns="http://www.w3.org/2000/svg" xmlns:xlink="http://www.w3.org/1999/xlink" x="0px" y="0px"
	 viewBox="0 0 334.2 334.2" enable-background="new 0 0 334.2 334.2" xml:space="preserve">
<title>Untitled-1</title>
<g id="KiTdl0.tif">
	<path fill="#2D3E50" d="M36,147.6c-1.2,4.4-2.1,8.9-2.7,13.4c-1.3,8.6-1.8,17.3-1.6,25.9c1.3,37.9,14.7,70.9,40.3,98.8
		c24.2,26.2,56.9,43,92.3,47.3c82.9,10.2,158.5-48.7,168.7-131.7c1.7-14.1,1.5-28.3-0.8-42.3C321.7,92.6,268.4,41.2,201.6,33
		c-11.8-1.4-23.8-1.5-35.6-0.2c-6,0.7-11.9,1.7-17.7,3.1c-0.2,0.1-0.5,0.2-0.7,0.3c0.1,0.9,0.9,0.9,1.5,1.1c4.5,1.7,9,3.3,13.4,5.1
		c7.5,3.1,15.2,5.8,22.7,9.1c3.9,1.7,7.9,3.4,11.8,5.2c9.3,4,18.4,8.6,27.2,13.5c3.3,1.8,6.7,3.7,9.8,5.8c0.9,0.6,1.9,0.9,3,0.9
		c2.2-0.3,4.3-1,6.4-1.6c0.8-0.3,1.4-1,1.4-1.8c0.6-2.3,1.1-4.6,1.7-6.8c0.5,2.4,1.3,4.9,1.8,7.4c0.1,0.7,0.7,1.2,1.4,1.3
		c2.4,0.7,4.9,1.2,7.3,1.8c-2,0.5-4.1,1.1-6.3,1.5c-1.4,0.1-2.5,1.2-2.6,2.6c-0.2,0.8-0.4,1.6-0.5,2.4c0,0.9,0.4,1.8,1.2,2.2
		c6.6,4.9,12.9,10.3,18.8,16.1c4.4,4.3,8.5,9,12.2,13.9c6.6,8.4,12.1,17.6,16.4,27.4c2.7,6.2,5,12.6,6.9,19.1
		c2,7.3,3.6,14.8,4.5,22.3c0.5,4.9,0.6,9.7,0.5,14.6c0,9.2-1.4,18.3-3.9,27.2c-2.2,8-5.4,15.8-9.4,23.1c-3.4,6.3-7.4,12.3-12,17.9
		c-5.6,6.9-12.1,13-19.2,18.4c-1.1,0.8-2.5,1.4-3,2.9c0.1,2.2,0.3,2.6,4.6,3.2c-3.8,0.2-4.2,0.6-5.2,4.8c-0.1-3.6-0.9-4.4-4.5-4.8
		c-1.1,0.1-2.2,0.5-3.1,1.2c-6.1,3.7-12.6,6.7-19.4,9c-7.6,2.6-15.4,4.4-23.4,5.3c-6.5,0.7-13.1,0.9-19.7,0.5
		c-5.9-0.3-11.8-1.2-17.6-2.5c-6-1.3-11.9-2.9-17.6-4.8c-7.7-2.6-15.2-6-22.3-10c-6.4-3.6-12.5-7.8-18.3-12.4
		c-7.9-6.4-15.2-13.6-21.8-21.4c-4.9-5.9-9.5-12-13.6-18.4c-4.9-7.4-9.3-15.1-13.2-23.1c-0.5-1-1.2-1.9-1.6-3
		c-0.1-0.2-0.3-0.4-0.5-0.5c-0.9,0.1-0.2-0.4-0.2-0.6c-0.2-1.7-1.3-3.1-2-4.6c-3.5-7-6.5-14.3-9.6-21.5c-4-9.4-7.6-18.9-11.3-28.4
		c-1-2.6-2-5.3-3.1-7.9C36.8,148.3,36.8,147.6,36,147.6z"/>
	<path fill="#344A5E" d="M236.9,76.5c-1.9,0.3-3.1-1.2-4.5-2c-6.3-3.8-12.8-7.3-19.3-10.6c-4.3-2.2-8.6-4.2-13-6.2
		c-6.1-2.8-12.4-5.5-18.6-8c-10-4.2-20.1-8-30.2-12c-1.3-0.4-2.5-0.9-3.7-1.5h-0.9c-1.6-0.2-3.1,0.5-4.6,0.9
		c-12.4,3.5-24.3,8.5-35.5,15C97.2,57.5,88.4,64,80.4,71.3c-3.9,3.6-7.6,7.4-11,11.4c-7.5,8.5-14.1,17.9-19.6,27.9
		C44,121.1,39.5,132.4,36.4,144c-0.2,0.9-0.3,1.8-0.4,2.7v0.9c0.8,1.9,1.4,3.8,2.2,5.6c0.8,2.1,1.7,4.1,2.5,6.2
		c3,7.6,5.9,15.3,9.1,22.9c2,4.8,4.1,9.6,6.1,14.4c2.1,5,4.7,9.8,6.9,14.8c2.8,0.7,4.3-0.4,5.2-4.1c-0.1,3.5,2.2,4.3,5,4.5
		c0.1,0.1-0.1,0.3-0.1,0.2s0-0.1-0.1-0.1c-3-0.1-4,0.8-5,4.2c-0.4-1.1-0.3-2.4-1.3-3.2c-0.9-0.8-2.1-1-3.2-0.6
		c0.6,1.9,1.5,3.8,2.6,5.5c3.4,6.5,7.1,12.9,11.1,19.1c4.1,6.4,8.5,12.6,13.3,18.6c3.5,4.4,7.3,8.6,11.3,12.5
		c12.1,12.2,26.5,22.1,42.3,29c7.2,3.1,14.7,5.7,22.3,7.6c5.9,1.5,12,2.6,18.1,3.4c6.7,0.8,13.5,0.9,20.3,0.4
		c8.8-0.6,17.4-2.2,25.8-5c7-2.3,13.7-5.2,20.2-8.7c1.6-0.8,2.9-2.1,4.8-2.4c0.1-0.2-0.3-0.3,0-0.5c0.1,0,0.2,0,0.3,0
		c3.8-0.8,4-1.1,4.4-5c0-0.2,0.3,0.1,0.1,0s-0.1,0-0.1,0.1c0.1,0.7-0.2,1.5,0.7,1.8c0.6-1.3,2-1.9,3-2.7c4.9-3.7,9.5-7.8,13.7-12.2
		c4.1-4.3,7.8-8.9,11.2-13.8c3.7-5.3,6.9-11,9.6-16.9c2.4-5.1,4.3-10.4,5.8-15.8c1.5-5.1,2.5-10.4,3.2-15.7c0.6-4.1,1-8.3,1-12.5
		c0.1-4.9-0.1-9.7-0.6-14.5c-0.5-3.4-0.9-6.8-1.6-10.1c-0.9-4.6-2-9.2-3.4-13.7c-1.7-5.6-3.7-11.2-6-16.6c-2.3-5.3-5-10.4-8-15.4
		c-2.2-3.6-4.6-7.1-7-10.6c-2.3-3.2-4.8-6.4-7.5-9.3c-3.1-3.5-6.3-6.9-9.8-10.1c-4.9-4.5-10-8.8-15.3-12.8c-0.7-0.5-1.6-1-1.5-2.1
		c-1.3,1.1-1,2.7-1.4,3.9c-0.6-1.7-0.7-3.7-1.6-5.5c-1.9-1.1-3.3-2.7-5.5-3.4c0.2-0.1,0.3-0.2,0.3-0.4c-1.3-1-2.8-1-4.3-1.3
		c0.1-0.1,0.3-0.1,0.4,0c0.2,0,0.4,0,0.6-0.1C236.7,77,236.9,76.7,236.9,76.5z"/>
	<path fill="#F0F0F0" d="M21.8,29.9C31.9,48.2,40,68.6,38.5,89.3c-13-0.7-25.9-2.7-38.5-6c17.5,17.1,26.9,40.5,35.8,63.2
		c6.4-22.4,16.5-43.2,31.6-61c3.6-4.3,7.4-8.4,11.5-12.2c19-17.9,42.3-30.8,67.6-37.3C123.7,26.9,100.4,17.4,83.2,0
		c0.7,3.3,1.5,6.5,2.2,9.8c1.4,6.1,2.4,12.2,3.1,18.4c0.3,3.1,0.3,6.2,0.8,9.3c0.2,1.3-0.5,1.4-1.6,1.4C61,39.5,39.4,25.1,16.4,14
		c-1-0.5-1.9-1-2.8-1.6c-0.5-0.3-1-0.8-1.5-0.3s-0.1,1,0.1,1.5c0.7,1.2,1.4,2.4,2.1,3.6C16.9,21.2,19.4,25.5,21.8,29.9z"/>
	<path fill="#FEFFFF" d="M244.6,82.3l1.8,6.8l1.4-5.3c0.3-1.1,0.6-2.3,0.8-3.4c0.1-0.9,0.9-0.9,1.5-1.1c2.6-0.7,5.2-1.3,7.9-2.2
		c-2.5-0.6-5.1-1.3-7.6-1.9c-1-0.1-1.8-0.9-1.9-2c-0.5-2.6-1.3-5.1-2-8.1c-0.7,2.8-1.4,5.1-1.9,7.5c-0.3,1.5-0.8,2.4-2.5,2.6
		c-1.8,0.3-3.5,0.7-5.2,1.2c-0.5,0.5-1.4,0.1-1.9,0.8l4.7,1.4c0.5,0.4,1.1,0.7,1.8,0.8c1.4,0.2,2.5,0.7,2.8,2.3
		C244.3,81.9,244.4,82.1,244.6,82.3z"/>
	<path fill="#FAFBFB" d="M63.5,212.2h0.2c2.3,0.1,3.8,1,3.9,3.6c0.1,0.6,0.3,1.1,0.5,1.7c0.3-1,0.6-2,0.8-3.1c0-1.1,0.9-1.9,2-1.9
		c0,0,0,0,0,0c0.9-0.1,1.8-0.4,2.8-0.7c-1-0.6-2.1-0.9-3.3-1c-0.7-0.1-1.3-0.6-1.4-1.4c-0.2-1.1-0.6-2.2-1.1-3.2
		c-0.3,1-0.5,1.9-0.7,2.9c0,1-0.8,1.7-1.8,1.7c-0.9,0.1-1.7,0.3-2.6,0.5C62.1,212.5,63.7,211.6,63.5,212.2z"/>
	<path fill="#FAFBFC" d="M260.9,288.7l-0.8-2.7c-0.4,1.5-0.8,2.6-0.9,3.7c0,0.7-0.6,1.2-1.2,1.3c-1.1,0.1-2.3,0.4-3.3,0.9l0.8,0.4
		c2.6,0,4.1,1.2,4.3,3.9c0.1,0.3,0.2,0.7,0.3,1c0.2,0.2,0.3,0.2,0.3,0c0.2-3.4,1.8-5.4,5.5-5.2c-0.8-0.6-1.7-0.9-2.6-1
		c-1.2,0.1-2.2-0.9-2.3-2.1C260.8,288.9,260.8,288.8,260.9,288.7z"/>
	<path fill="#ECF0F2" d="M275.3,252.6c3.7-4.9,6.7-10.2,9.2-15.8c3.7-8.1,6.3-16.7,7.6-25.5c1.1-7.4,1.4-14.8,0.8-22.2
		c-1.9-24.5-13-47.3-31.1-63.9c-7.1-6.6-15.2-12-24-16.2c-4.9-2.3-9.9-4.2-15.1-5.6c-0.7-0.1-1.3-0.7-1.5-1.4
		c-3.7-11.3-13.6-18-25.4-17.2c-2.1,0.1-4.2,0.6-6.1,1.4c-0.9,0.5-2,0.3-2.8-0.4c-6.6-4.7-13.9-8.2-21.6-10.4
		c-9.5-2.7-19.4-3.5-29.2-2.2c-11.8,1.4-23,5.8-32.6,12.6c-0.4,0.3-0.8,0.7-1.2,1c-4.8,6-7.9,12.9-10.2,20.2
		c-2.4,7.6-3.5,15.6-3.2,23.5c0,1.1,0.1,2.2,0.3,3.2c0.3,1.1-0.3,2.2-1.3,2.6c-3.7,2-6.6,5.2-8.1,9.1c-2.6,6.3-1.4,15,3.8,20.1
		c4.4,4.6,10.8,6.5,17,5.2c0.9-0.2,1.7-0.3,2.3,0.6s1.6,1.8,0.8,3.3c-2.5,4.7-3.4,10.1-2.4,15.4c1.2,7.3,5.7,13.7,12.2,17.3
		c5.2,3,10.7,3.6,16.5,2.8c0.7-0.2,1.5,0.3,1.6,1c0,0,0,0,0,0c3.4,8,7.9,15.5,13.4,22.2c5.2,6.5,11.3,12.2,18,17.2
		c1.5,1.1,2.4,0.9,2.5-0.7c0.3-4.6,2.3-8.4,4.9-12.1c0.3-0.4,0.5-0.7,0.7-1.1c-7,11.5-3.6,26.4,7.7,33.7c6.2,4.1,13,4.5,20.1,2.9
		c2-0.4,3.9-1.3,5.6-2.5c2.4-2,4.9-1.8,7.6-1.6c4.7,0.4,9.4,0.9,14.1,0.3c1-0.1,2,0,2.9-0.1c2-0.2,2.4-0.7,1.7-2.6
		c-1.1-3-0.8-6.4,0.7-9.2c-0.7,1.2-0.9,3.4-0.6,5.6c0.5,5,4.5,9.8,9.4,10.6c6.7,1.2,12.4-0.9,14.9-8.6c0.3-1.4,1.2-2.5,2.5-3
		c5.4-2.2,10.5-4.9,15.4-8C274,253.7,274.7,253.2,275.3,252.6z"/>
	<path fill="#BEC3C7" d="M275.3,252.6c-2.6,1-4.8,2.7-7.1,4.1c-3.5,2-7.1,3.8-10.9,5.3c-1.2,0.4-2.1,1.5-2.3,2.7
		c-0.9,4.3-4.3,7.7-8.6,8.7c-4.9,1.3-11.1-1.2-13.4-5.5c-1.9-3.6-2.6-7.4-0.5-11.3c0.3-0.3,0.3-0.7,0.2-1c-0.5,0.1-0.9,0.5-1.1,1
		c-1.8,3.3-2.5,6.7-1.2,10.3c0.6,1.7,0.5,2-1.3,2c-3,0-6,0.5-9,0.3c-3.8-0.1-7.6-0.4-11.4-0.9c-1.6-0.3-2.6,0.8-3.7,1.6
		c-3.3,2.2-7.1,3.5-11,3.7c-4.2,0.4-8.5-0.4-12.3-2.1c-2.7-1.3-5.1-3-7.1-5.2c-2.9-3-4.9-6.6-6-10.5c-1.4-5.8-0.8-11.9,1.8-17.3
		c0.4-1,1.1-1.9,1.6-2.9c-1.4,0.8-2.1,2.2-3,3.5c-2.4,3.1-3.8,6.9-4,10.8c0,1.2-0.4,1.5-1.5,0.7c-3.5-2.6-6.8-5.4-9.9-8.4
		c-3.5-3.3-6.8-6.9-9.7-10.8c-2.6-3.5-5-7.1-7.1-10.9c-1.9-3.2-3.5-6.5-4.9-10c-0.2-0.6-0.8-0.9-1.4-0.7c0,0-0.1,0-0.1,0
		c-5,1.1-10.2,0.5-14.8-1.6c-7.7-3.8-12.5-9.9-13.8-18.6c-0.5-3.7-0.2-7.4,0.8-10.9c0.4-1.5,1.1-2.8,1.9-4.1c0.3-0.5,0.3-1.2,0-1.8
		c-1.1-2.6-3-2.6-5.3-2c-3.7,0.9-7.3-0.1-10.5-1.8c-4.8-2.3-8.2-6.6-9.2-11.8c-1.7-8.4,1-15.9,9-20.3c1.1-0.5,1.7-1.6,1.4-2.8
		c-0.5-4.9-0.4-9.9,0.3-14.8c0.6-4.5,1.6-9,3-13.4c2-5.9,4.6-11.5,8-16.7c0.4-0.7,1.3-1.2,1.3-2.2c-3.2,2.1-6.2,4.6-8.8,7.4
		c-5.7,5.8-10.4,12.5-13.9,19.8c-9,19.2-9.3,41.3-0.7,60.7c3.2,7.2,7.5,13.8,12.9,19.5c2.3,2.4,4.7,4.7,7.2,6.9c0.6,0.5,1,1.3,1,2.1
		c0.1,3.9,0.6,7.9,1.4,11.7c2.1,11,6.1,21.5,11.9,31.1c13.5,22.4,35.4,38.5,60.8,44.6c3.7,0.8,7.5,1.5,11.3,1.9
		c12.8,1.5,25.8,0.4,38.2-3.2c11.5-3.4,22.3-8.9,31.9-16.2c7.3-5.7,13.8-12.4,19.3-19.9C275.1,253.2,275.2,252.9,275.3,252.6z"/>
	<path fill="#17414E" d="M244.6,82.3c-0.3-2.7-0.3-2.7-2.9-3.3c-0.7-0.2-1.4-0.3-2.1-0.4c-0.1,0.1-0.5,0.1-0.3,0.3
		C241.1,79.9,242.7,81.4,244.6,82.3z"/>
	<path fill="#94A5A5" d="M181.7,95.5c-2.6,3.2-4.2,7.1-4.6,11.2c-0.8,8.3,2.4,14.8,9,19.6c4.7,3.4,10.6,4.6,16.2,3.3
		c3.3-0.7,6.4-2.1,9-4.2c2.9-4,4.2-8.9,3.8-13.8c-0.2-2.9-1-5.7-2.4-8.2c-1.1-1.9-1.9-4-3.7-5.4c-4.9-3.9-10.2-6.5-16.7-6.1
		C188.5,92.2,184.8,93.4,181.7,95.5z"/>
	<path fill="#94A5A5" d="M175.8,236c-2.3,2.6-3.9,5.8-4.5,9.2c-0.7,3-0.7,6.1,0,9.1c1.1,4.7,3.7,8.8,7.5,11.8
		c7.9,6.3,19.2,6.1,26.9-0.5c1-1.7,1.8-3.5,2.4-5.3c2-7.8,0.7-15-4.9-20.9c-6.5-7.2-17.1-9.1-25.7-4.6
		C177,235.2,176.6,235.9,175.8,236z"/>
	<path fill="#94A5A5" d="M109.4,172.3c-3,3.5-4.8,7.9-5,12.5c-0.4,4.8,1,9.5,3.8,13.4c6.1,8.6,17.6,11.4,27,6.6
		c1.5-0.7,2.8-1.6,4-2.6c0.6-1.4,1.5-2.6,2-4.1c1.9-6.1,1.9-12.1-1.3-17.8c-3.6-6.8-10.7-11.2-18.4-11.2c-4.1-0.2-8.1,0.9-11.6,3.1
		C109.7,172.2,109.6,172.3,109.4,172.3z"/>
	<path fill="#94A5A5" d="M241.2,160.9c-2.2,2.4-3.5,5.4-3.8,8.6c-0.8,8,4.8,15.2,12.8,16.4c4.6,0.7,8.4-0.8,12-3.2
		c0.2-0.2,0.3-0.4,0.5-0.6c0.4-1.2,1.2-2.2,1.6-3.4c2.8-8.7-2.7-18.3-11.8-19.9C248.6,158.1,244.7,158.4,241.2,160.9z"/>
	<path fill="#94A5A5" d="M85.3,143c-4.5,5.1-4.9,12.6-1,18.2c3.2,4.2,7.3,6.8,12.7,6.7c3.6,0,7-1.3,9.7-3.6
		c3.8-4.8,3.4-13.2-0.6-18.1c-2.7-3.5-6.8-5.6-11.2-5.8c-2.4-0.2-4.8,0.1-7.1,1C86.8,141.8,86.2,142.6,85.3,143z"/>
	<path fill="#7F8C8D" d="M175.8,236c0.2,0.4,0.5,0.2,0.8,0.1c7.6-4.4,15-4.3,22.4,0.4c5.1,3.1,8.6,8.3,9.4,14.2
		c0.8,4.8-0.1,9.7-2.5,13.9c-0.2,0.3-0.7,0.6-0.1,1c11.9-10,8.9-28.9-4.8-35.3C192.3,226.2,181.9,228.6,175.8,236z"/>
	<path fill="#7F8C8D" d="M109.4,172.3c0,0.6,0.2,0.4,0.6,0.2c2.5-1.4,5.2-2.4,8-2.9c5.4-0.8,10.8,0.5,15.2,3.7
		c3.6,2.4,6.3,5.8,7.7,9.9c2,6,1.8,11.8-1.3,17.5c-0.2,0.4-0.9,0.9-0.3,1.5c7.6-6.4,9.7-17.2,5-25.9c-2.9-6.1-8.8-10.3-15.5-11.1
		C120.9,164.1,114.6,166.6,109.4,172.3z"/>
	<path fill="#7F8C8D" d="M181.7,95.5c0.2,0.3,0.5,0.2,0.8,0c6.8-4.7,16.9-4.1,23.3,0.7c0.9,0.5,1.7,1,2.5,1.7
		c6.6,6.5,8.3,16.4,4.4,24.8c-0.4,0.9-1.4,1.6-1.3,2.7c9.1-7.2,10.7-20.4,3.5-29.5c-0.3-0.3-0.5-0.7-0.8-1
		c-3.9-4.6-9.7-7.2-15.8-7.1C191.4,87.8,186.1,90.6,181.7,95.5z"/>
	<path fill="#94A5A5" d="M237.8,254.5c-2.9,1.8-4,6.6-3.3,9c1,3.7,3.3,6.2,7.2,7.1c3.6,0.7,6.3-0.5,8.7-3.1c1.1-2.3,1.2-5,0.4-7.4
		c-0.6-1.8-1.8-3.3-3.3-4.4c-0.8-0.4-1.3-1.4-1.1-2.3c-0.1-0.4-1-0.2-0.9-0.9c0-0.2-0.1-0.2-0.4,0.3c-0.8,0.9-2,1.3-3.2,1.1
		C240.5,253.6,239.2,254.3,237.8,254.5z"/>
	<path fill="#94A5A5" d="M132,135.8c-1.8-0.2-3.6,0.3-5.1,1.3c-0.6,0.1-2.1,2.5-2.3,3.2c-0.4,1.6,0.5,2.9-0.2,2.8
		c-0.8,3.6,1.6,7.1,4.9,8.8c3.6,1.7,8,0.8,10.6-2.2c0.7-1.6,1-3.3,1-5c0-2.3-0.9-4.5-2.5-6.1C137.2,137.4,133.6,136.1,132,135.8z"/>
	<path fill="#B1B2B3" d="M212.1,128.9c-10.4,6.5-21.3,5.3-28.8-1c-11.1-9.2-11.9-20.5-5.5-32.8c-5.9,6.2-8.1,13.5-6.4,21.8
		c1.8,9.3,9,16.6,18.3,18.6C198.4,137.4,205.8,135,212.1,128.9z"/>
	<path fill="#B1B2B3" d="M262.4,186.4c-10.2,4.9-18.8,3.4-25.3-5.9c-2.9-4.2-4.7-11.2,0.2-19.7c-3.5,1.9-6.7,9.5-6,14.5
		c1.1,8,5.3,13.7,13.2,16C250.8,193.3,258.4,191.4,262.4,186.4z"/>
	<path fill="#7F8C8D" d="M85.3,143c1.2-0.1,2.2-1,3.3-1.4c9.6-3.3,20,3.5,20.2,13.6c0.1,3-0.6,6-2.2,8.6c-0.1,0.2-0.2,0.4,0,0.5
		c6.4-5.5,7.1-15.2,1.5-21.5c-1.1-1.2-2.3-2.3-3.7-3.1c-5-2.8-11.1-2.6-15.9,0.5C87.3,140.9,86.2,141.9,85.3,143z"/>
	<path fill="#7F8C8D" d="M241.2,160.9c1,0.3,1.5-0.6,2.3-0.8c7.7-3.3,16.6,0.3,19.9,7.9c0.4,0.9,0.7,1.8,0.9,2.8
		c0.7,3.5,0.2,7.2-1.5,10.4c-0.1,0.3-0.6,0.5-0.1,0.9c2.9-2.6,4.7-6.3,4.9-10.3c0.3-6.3-3.5-12.5-8.7-14.7
		C252.8,154.4,245.7,155.9,241.2,160.9z"/>
	<path fill="#B2B3B2" d="M139,154.4c-1.6,0.3-3.1,1.1-4.8,1.3c-6.6,0.6-12.5-4.2-13.1-10.8c-0.1-1.4,0-2.7,0.3-4
		c0.2-0.4,0.1-0.9-0.3-1.1c0,0-0.1,0-0.1-0.1c-0.6-0.2-0.6,0.5-0.6,0.8c-1.8,5.5-0.8,10.4,3.8,14.1c3.8,2.9,8.9,3.4,13.2,1.2
		c0.7-0.3,1.3-0.8,1.9-1.1L139,154.4z"/>
	<path fill="#7F8C8D" d="M246.4,253.2c-0.2,0.3-0.4,0.6-0.6,0.9c-0.5,0.5-0.4,0.7,0.2,1c4.4,2.5,5.9,6.5,4.4,11.2
		c-0.1,0.3-0.5,0.7,0,1.1c3.2-4.5,2.8-9.3-1.3-12.9C248.4,253.8,247.4,253.3,246.4,253.2z"/>
	<path fill="#737D83" d="M138.3,136.2c4.2,3.1,5,9,1.9,13.2c-0.1,0.2-0.2,0.3-0.4,0.4c-0.6-0.4,0-0.8,0.1-1.2
		c1.4-3.6,0.4-7.6-2.4-10.2c-0.3-0.2-3-2.2-4.4-2.1c-0.4,0-0.8,0-1.2-0.1c-1.8-0.4-3.4,0.7-5.1,0.9
		C130,134.2,134.7,133.8,138.3,136.2z"/>
	<path fill="#7F8C8D" d="M237.8,254.5c2.2,0,4.4-0.2,6.6-0.6c0.5-0.2,0.8-0.7,0.8-1.2C242.5,252.4,240,252.7,237.8,254.5z"/>
</g>
</svg>
