<?xml version="1.0" encoding="utf-8"?>
<!-- Generator: Adobe Illustrator 19.2.1, SVG Export Plug-In . SVG Version: 6.00 Build 0)  -->
<!DOCTYPE svg PUBLIC "-//W3C//DTD SVG 1.1//EN" "http://www.w3.org/Graphics/SVG/1.1/DTD/svg11.dtd">
<svg version="1.1" id="Layer_1" xmlns="http://www.w3.org/2000/svg" xmlns:xlink="http://www.w3.org/1999/xlink" x="0px" y="0px"
	 viewBox="0 0 354.8 357.8" enable-background="new 0 0 354.8 357.8" xml:space="preserve">
<g id="KiTdl0.tif">
	<g>
		<path fill="#F7A117" d="M46.3,159.4c-1.3,4.4-2,8.9-2.7,13.4c-1.2,8.6-1.9,17.2-1.6,25.9c1.3,37.9,14.6,70.9,40.3,98.8
			c15,16.3,32.8,28.7,53.3,37.1c12.5,5.2,25.5,8.5,39,10.2c11.9,1.5,23.8,1.6,35.6,0.2c22.5-2.6,43.4-9.8,62.6-21.7
			c9.3-5.7,17.8-12.4,25.7-20c15-14.6,26.6-31.6,34.6-50.9c5.2-12.6,8.6-25.6,10.2-39.1c1.7-14.2,1.6-28.4-0.7-42.5
			c-4.8-29.5-17.3-55.5-37.4-77.7c-16.3-18-35.8-31.3-58.5-39.9c-11.2-4.3-22.9-7.1-34.8-8.6c-11.9-1.5-23.7-1.5-35.6-0.2
			c-6,0.6-11.9,1.7-17.7,3.1c-0.2,0.1-0.5,0.2-0.7,0.3c0.1,0.9,0.9,0.9,1.5,1.1c4.5,1.7,9,3.3,13.4,5.1c7.5,3.1,15.2,5.9,22.7,9.1
			c3.9,1.7,7.9,3.4,11.8,5.1c9.3,4,18.4,8.6,27.2,13.5c3.3,1.8,6.7,3.6,9.8,5.8c0.9,0.6,14,9.4,14.8,9.9
			c6.6,4.9,12.9,10.3,18.8,16.1c4.4,4.3,8.4,9,12.2,13.9c6.5,8.5,12.1,17.6,16.4,27.4c2.7,6.2,5,12.6,6.9,19.1
			c2,7.3,3.6,14.8,4.5,22.3c0.6,4.9,0.5,9.7,0.5,14.6c0,9.2-1.4,18.3-3.9,27.2c-2.2,8-5.3,15.7-9.3,23.1c-3.5,6.3-7.4,12.4-12,17.9
			c-5.7,6.8-11.9,13.1-19.2,18.4c-1.1,0.8-23.9,14-30.6,16.3c-7.6,2.7-15.4,4.3-23.4,5.3c-6.6,0.8-13.1,0.8-19.7,0.5
			c-5.9-0.2-11.8-1.3-17.6-2.5c-6-1.3-11.9-2.8-17.6-4.8c-7.7-2.7-15.2-5.9-22.3-10c-6.4-3.7-12.6-7.7-18.3-12.4
			c-8-6.4-15.2-13.6-21.8-21.4c-4.9-5.9-9.5-12-13.6-18.4c-4.8-7.5-9.4-15.1-13.2-23.1c-0.5-1-1.2-1.9-1.6-3
			c-0.1-0.2-0.3-0.5-0.5-0.5c-0.9,0.1-0.1-0.4-0.2-0.6c-0.2-1.7-1.3-3.1-2-4.6c-3.5-7-6.5-14.3-9.6-21.5c-4-9.4-7.6-18.9-11.3-28.4
			c-1-2.6-2-5.3-3.1-7.9C47.1,160.1,47.1,159.4,46.3,159.4z"/>
		<path fill="#EA5015" d="M242.7,86.2c-6.3-3.8-12.8-7.3-19.3-10.6c-4.3-2.2-8.6-4.2-13-6.2c-6.1-2.8-12.4-5.4-18.7-8
			c-10-4.1-20.1-8-30.2-12c-1.2-0.5-2.5-0.8-3.7-1.5c-0.3,0-0.6,0-0.9,0c-1.7-0.2-3.1,0.5-4.6,0.9c-12.4,3.6-24.3,8.5-35.5,15
			c-9.4,5.5-18.1,11.9-26.1,19.2c-3.9,3.5-7.5,7.4-11.1,11.3c-7.6,8.6-14.1,17.9-19.6,27.9c-5.8,10.6-10.2,21.8-13.4,33.5
			c-0.2,0.9-0.2,1.8-0.4,2.7c0,0.3,0,0.6,0,0.9c0.8,1.9,1.4,3.7,2.2,5.6c0.8,2.1,1.7,4.1,2.5,6.2c3,7.6,5.9,15.3,9.1,22.9
			c2,4.8,4.1,9.6,6.1,14.4c2.1,5,9.2,19.3,10.2,21c3.4,6.5,7.1,12.9,11.1,19.1c4.1,6.5,8.5,12.6,13.3,18.6
			c3.5,4.4,7.3,8.6,11.3,12.5c4.9,4.9,10.1,9.5,15.8,13.6c8.3,6,17,11.2,26.5,15.3c7.3,3.1,14.7,5.7,22.3,7.6
			c5.9,1.5,11.9,2.6,18.1,3.4c6.8,0.8,13.6,0.9,20.3,0.4c8.8-0.6,17.4-2.2,25.8-4.9c7-2.3,32.3-16.5,33.4-17.3
			c4.9-3.7,9.5-7.7,13.7-12.2c4.1-4.3,7.9-8.9,11.2-13.8c3.7-5.4,6.9-11,9.6-16.9c2.4-5.1,4.3-10.4,5.8-15.8
			c1.5-5.1,2.5-10.4,3.2-15.7c0.5-4.2,1-8.3,1-12.5c-0.1-4.8,0-9.7-0.6-14.5c-0.5-3.4-0.9-6.8-1.6-10.1c-0.9-4.6-2-9.2-3.4-13.7
			c-1.7-5.6-3.7-11.2-6-16.6c-2.3-5.3-5-10.4-8-15.4c-2.2-3.6-4.6-7.1-7-10.6c-2.3-3.3-4.9-6.3-7.5-9.3c-3.1-3.5-6.3-6.9-9.8-10.1
			C270.1,106,244.1,87.1,242.7,86.2z"/>
		<path fill="#EA5015" d="M32.1,41.7C42.2,60,50.3,80.4,48.9,101.1c-13-0.7-25.9-2.7-38.5-6c17.5,17.1,26.9,40.5,35.8,63.2
			c6.4-22.3,16.5-43.2,31.6-61c3.6-4.3,7.4-8.3,11.5-12.1c18.9-17.9,42.4-30.8,67.6-37.3c-22.7-9.1-46.1-18.7-63.3-36.1
			c0.7,3.3,1.5,6.5,2.2,9.8c1.3,6.1,2.4,12.2,3.1,18.4c0.3,3.1,0.3,6.2,0.8,9.3c0.2,1.3-0.5,1.4-1.6,1.4
			c-26.7,0.6-48.3-13.8-71.3-24.9c-1-0.5-1.9-1-2.8-1.6c-0.5-0.3-1-0.8-1.5-0.3c-0.6,0.5-0.1,1,0.1,1.5c0.7,1.2,1.4,2.4,2.1,3.6
			C27.2,33,29.7,37.3,32.1,41.7z"/>
		<path fill="#ECF0F2" d="M285.7,264.4c3.7-4.9,6.7-10.2,9.2-15.8c3.8-8.1,6.3-16.7,7.6-25.5c1.1-7.4,1.3-14.8,0.8-22.2
			c-0.8-11.5-3.7-22.4-8.4-32.8c-5.4-11.9-13-22.3-22.7-31.1c-7.2-6.6-15.2-12-24-16.2c-4.9-2.3-9.9-4.2-15.1-5.6
			c-0.8-0.2-1.2-0.6-1.5-1.5c-3.7-11.3-13.6-18-25.4-17.2c-2.1,0.2-4.2,0.6-6.1,1.5c-1.1,0.5-1.9,0.3-2.8-0.4
			c-6.6-4.7-13.8-8.2-21.6-10.4c-9.6-2.7-19.3-3.5-29.2-2.2c-11.9,1.5-22.8,5.7-32.6,12.6c-0.4,0.3-0.8,0.6-1.2,1
			c-4.8,6-7.9,12.9-10.2,20.2c-2.4,7.7-3.4,15.5-3.2,23.5c0,1.1,0.1,2.2,0.3,3.2c0.2,1.2-0.2,2-1.3,2.7c-3.7,2.1-6.5,5-8.2,9.1
			c-2.6,6.3-1.4,15,3.8,20.1c4.9,4.7,10.5,6.4,17,5.2c0.9-0.2,1.7-0.3,2.3,0.6c0.6,1,1.6,1.8,0.8,3.3c-2.6,4.8-3.3,10-2.4,15.4
			c1.4,7.6,5.5,13.4,12.2,17.3c5.2,3,10.7,3.6,16.5,2.8c0.9-0.1,1.3,0.2,1.6,1c3.4,8.1,8,15.4,13.4,22.2c5.2,6.5,11.3,12.2,18,17.2
			c1.5,1.1,2.4,0.9,2.5-0.7c0.3-4.6,2.3-8.4,4.9-12.1c0.2-0.3,0.4-0.6,0.7-1.1c-2.7,4.4-3.9,9.1-3.6,14c0.4,8.4,4.3,15,11.3,19.6
			c6.2,4.1,13,4.5,20.1,2.9c2-0.5,4-1.2,5.6-2.5c2.4-2,4.9-1.8,7.7-1.6c4.7,0.4,9.4,0.9,14.1,0.3c1-0.1,2,0,2.9-0.1
			c2-0.2,2.4-0.7,1.7-2.6c-1.3-3.6-0.5-6.8,0.7-9.2c-0.7,1.2-0.9,3.4-0.6,5.6c0.5,5,4.5,9.8,9.4,10.6c6.7,1.2,12.4-0.9,14.9-8.6
			c0.5-1.4,1.1-2.4,2.5-3c5.4-2.1,10.5-4.9,15.4-8.1C284.3,265.5,285,265,285.7,264.4z"/>
		<path fill="#BEC3C7" d="M285.7,264.4c-2.6,1-4.8,2.7-7.2,4.1c-3.5,2.1-7.2,3.7-10.8,5.3c-1.4,0.6-1.9,1.4-2.3,2.7
			c-1.2,4.5-4,7.5-8.6,8.7c-4.9,1.3-11.1-1.2-13.4-5.5c-1.9-3.6-2.6-7.4-0.5-11.3c0.2-0.3,0.4-0.6,0.2-1c-0.6,0.1-0.8,0.5-1.1,1
			c-1.8,3.3-2.5,6.7-1.2,10.3c0.6,1.7,0.5,2-1.3,2c-3,0-6,0.5-9,0.3c-3.8-0.2-7.7-0.3-11.4-0.9c-1.6-0.3-2.6,0.8-3.7,1.6
			c-3.4,2.3-7,3.5-11.1,3.7c-4.2,0.2-8.4-0.2-12.2-2.1c-2.7-1.3-5.1-3-7.1-5.2c-2.8-3.1-4.9-6.5-6-10.5c-1.5-6-0.7-11.7,1.8-17.3
			c0.4-1,1.1-1.9,1.6-2.9c-1.4,0.8-2.1,2.2-3,3.5c-2.3,3.2-3.8,6.7-4,10.8c0,1.2-0.5,1.5-1.5,0.7c-3.5-2.6-6.7-5.4-9.9-8.4
			c-3.6-3.3-6.7-7-9.7-10.8c-2.7-3.5-5.2-7.1-7.3-10.9c-1.8-3.3-3.6-6.5-4.9-10c-0.2-0.7-0.7-0.8-1.5-0.6c-5.1,1-10.2,0.6-14.8-1.6
			c-7.7-3.8-12.5-9.9-13.9-18.6c-0.6-3.7-0.1-7.3,0.8-10.9c0.4-1.4,1.1-2.8,1.9-4.1c0.4-0.7,0.2-1.1,0-1.7c-1.1-2.6-3-2.6-5.3-2
			c-3.7,0.9-7.3-0.1-10.5-1.8c-4.8-2.4-8.2-6.5-9.2-11.8c-1.7-8.3,1-15.9,9-20.3c1.3-0.7,1.6-1.6,1.4-2.8c-0.6-5-0.3-9.9,0.3-14.8
			c0.6-4.6,1.7-9,3-13.4c1.9-6,4.7-11.4,8-16.7c0.4-0.7,1.3-1.2,1.3-2.2c-3.3,2.1-6.1,4.7-8.8,7.4c-5.7,5.8-10.4,12.4-13.9,19.8
			c-3.7,7.8-5.9,16-6.6,24.6c-1.1,12.6,0.9,24.6,6,36.1c3.2,7.2,7.5,13.7,12.9,19.5c2.3,2.5,4.7,4.7,7.3,6.9c0.7,0.6,1,1.2,1,2.1
			c0.1,3.9,0.7,7.8,1.4,11.7c2.1,11.1,6.1,21.5,11.9,31.2c6.5,10.8,14.7,20,24.8,27.6c10.8,8.2,22.8,13.8,36,17
			c3.7,0.9,7.5,1.4,11.3,1.9c5.2,0.7,10.5,0.7,15.7,0.5c7.6-0.3,15.1-1.6,22.5-3.7c11.6-3.4,22.2-8.8,31.9-16.2
			c7.4-5.7,13.8-12.4,19.3-19.9C285.4,265,285.5,264.7,285.7,264.4z"/>
		<path fill="#94A5A5" d="M192,107.3c-2.5,3.4-4.2,7-4.6,11.3c-0.8,8.3,2.4,14.8,9,19.6c4.8,3.5,10.3,4.4,16.2,3.3
			c3.4-0.7,6.3-2.2,9-4.2c3-4.1,4.1-8.8,3.8-13.8c-0.2-2.9-1-5.7-2.4-8.2c-1.1-1.9-1.9-4-3.7-5.4c-4.9-3.9-10.2-6.5-16.7-6.1
			C198.7,104,195.2,105.1,192,107.3z"/>
		<path fill="#94A5A5" d="M186.1,247.8c-2.5,2.6-3.7,5.8-4.5,9.2c-0.7,3-0.7,6.2,0,9.1c1.2,4.7,3.7,8.7,7.5,11.8
			c3.6,2.9,7.7,4.5,12.3,4.6c5.5,0.1,10.5-1.3,14.7-5.1c0.9-1.7,1.9-3.4,2.4-5.3c2-7.8,0.7-15-4.9-20.9c-6.7-7.2-16.7-9-25.7-4.6
			C187.3,247,186.9,247.7,186.1,247.8z"/>
		<path fill="#94A5A5" d="M119.7,184.1c-3,3.6-4.8,7.8-5,12.5c-0.2,4.9,0.8,9.5,3.8,13.4c2.1,2.8,4.5,5.2,7.8,6.7
			c6.5,3.1,12.8,3,19.2-0.1c1.5-0.7,2.8-1.5,4-2.6c0.6-1.4,1.5-2.6,2-4.1c1.9-6.1,1.9-12.1-1.3-17.7c-4-7.1-10.2-10.9-18.4-11.2
			c-4.2-0.2-8,0.8-11.6,3.1C120.1,184,119.9,184.1,119.7,184.1z"/>
		<path fill="#94A5A5" d="M251.6,172.7c-2.2,2.4-3.5,5.3-3.8,8.6c-0.4,4.5,0.9,8.4,3.9,11.7c2.4,2.6,5.3,4.1,8.9,4.7
			c4.6,0.7,8.4-0.8,12-3.2c0.2-0.1,0.3-0.4,0.5-0.6c0.4-1.2,1.2-2.2,1.6-3.4c2.8-8.7-2.7-18.3-11.7-19.9
			C258.9,169.9,255,170.2,251.6,172.7z"/>
		<path fill="#94A5A5" d="M95.6,154.8c-4.5,4.8-4.9,13-1,18.2c3.2,4.2,7.3,6.8,12.7,6.7c3.6,0,6.9-1.2,9.7-3.6
			c3.8-4.8,3.4-13.2-0.5-18.1c-2.9-3.5-6.6-5.6-11.2-5.8c-2.4-0.1-4.8,0.1-7.1,1C97.1,153.6,96.5,154.4,95.6,154.8z"/>
		<path fill="#7F8C8D" d="M186.1,247.8c0.2,0.4,0.5,0.2,0.8,0.1c7.6-4.4,15-4.2,22.4,0.4c5.3,3.3,8.4,8.2,9.4,14.3
			c0.8,4.9,0,9.6-2.5,13.9c-0.2,0.3-0.7,0.6-0.1,1c11.9-10,8.9-28.9-4.8-35.3C203.2,238.3,192.8,239.8,186.1,247.8z"/>
		<path fill="#7F8C8D" d="M119.7,184.1c0,0.6,0.2,0.4,0.5,0.2c2.5-1.4,5.1-2.5,8-2.8c5.6-0.7,10.6,0.5,15.2,3.7
			c3.6,2.5,6.3,5.7,7.7,9.9c2,6,1.8,11.8-1.3,17.5c-0.2,0.4-0.9,0.8-0.3,1.5c7.8-6.5,9.5-17.2,5-25.9c-3.3-6.3-8.4-10.1-15.6-11.1
			C131.3,175.8,124.9,178.4,119.7,184.1z"/>
		<path fill="#7F8C8D" d="M192,107.3c0.2,0.3,0.5,0.2,0.8,0c6.8-4.7,16.9-4.1,23.3,0.7c0.8,0.6,1.8,1,2.5,1.6
			c6.8,6.9,8.2,16.4,4.4,24.8c-0.4,0.9-1.4,1.6-1.3,2.7c9.5-7.6,10.7-21.4,2.7-30.5c-4.2-4.7-9.3-7.1-15.8-7.1
			C201.7,99.6,196.4,102.4,192,107.3z"/>
		<path fill="#94A5A5" d="M248.1,266.3c-2.9,1.8-4,6.6-3.3,9c1,3.7,3.3,6.3,7.2,7.1c3.6,0.7,6.3-0.5,8.7-3.1c1-2.4,1.3-4.8,0.4-7.4
			c-0.6-1.9-1.8-3.3-3.3-4.4c-0.9-0.7-1.3-1.3-1.1-2.3c-0.1-0.4-1-0.2-0.8-0.9c0-0.2-0.1-0.2-0.4,0.3c-0.9,0.9-2,1.3-3.2,1.1
			C250.8,265.4,249.5,266.1,248.1,266.3z"/>
		<path fill="#94A5A5" d="M142.3,147.6c-1.9-0.3-3.5,0.4-5.1,1.3c-0.6,0.1-2.1,2.5-2.3,3.3c-0.4,1.6,0.5,2.9-0.3,2.8
			c-0.8,3.6,1.6,7.1,4.9,8.8c3.5,1.8,7.8,0.8,10.6-2.2c0.7-1.6,1.1-3.2,1-5c-0.1-2.4-0.9-4.4-2.5-6.1
			C147.5,149.2,143.9,147.8,142.3,147.6z"/>
		<path fill="#B1B2B3" d="M222.4,140.7c-10.4,6.5-21.3,5.3-28.8-1c-11.1-9.2-11.9-20.5-5.5-32.8c-5.9,6.2-8.2,13.5-6.4,21.8
			c2.2,10.3,9.8,16.8,18.3,18.6C208.7,149.2,216.1,146.8,222.4,140.7z"/>
		<path fill="#B1B2B3" d="M272.7,198.2c-10.2,4.8-18.8,3.3-25.3-5.9c-2.9-4.2-4.7-11.2,0.2-19.7c-3.5,1.9-6.7,9.5-6,14.5
			c1.1,8,5.3,13.7,13.2,16C261.1,205.1,268.8,203.2,272.7,198.2z"/>
		<path fill="#7F8C8D" d="M95.6,154.8c1.3-0.1,2.2-1,3.3-1.4c9.6-3.3,20,3.5,20.1,13.6c0,3.1-0.5,6-2.2,8.6c-0.1,0.2-0.2,0.3,0,0.5
			c7.9-7.1,6.8-19.1-2.2-24.7c-4.5-2.8-11.6-2.5-15.9,0.5C97.6,152.8,96.5,153.6,95.6,154.8z"/>
		<path fill="#7F8C8D" d="M251.6,172.7c1,0.3,1.5-0.5,2.3-0.8c9.4-3.7,18.7,1.7,20.8,10.7c0.8,3.7,0.1,7.1-1.5,10.4
			c-0.1,0.3-0.6,0.5-0.1,0.9c3-2.8,4.7-6.2,4.9-10.3c0.3-6.3-3.4-12.5-8.7-14.7C262.8,166.3,256.4,167.6,251.6,172.7z"/>
		<path fill="#B2B3B2" d="M149.3,166.2c-1.6,0.3-3.1,1.1-4.8,1.3c-3.5,0.4-6.5-0.7-9.1-3c-3.6-3.2-4.8-7.2-3.7-11.9
			c0.1-0.6,0-1-0.5-1.1c-0.7-0.2-0.6,0.5-0.6,0.8c-1.7,5.5-0.8,10.4,3.8,14.1c3.6,3,8.9,3.3,13.1,1.2c0.7-0.3,1.3-0.8,1.9-1.1
			C149.4,166.4,149.3,166.3,149.3,166.2z"/>
		<path fill="#7F8C8D" d="M256.7,265c-0.2,0.3-0.4,0.6-0.6,0.9c-0.5,0.5-0.3,0.7,0.2,1c4.3,2.5,5.9,6.5,4.4,11.2
			c-0.1,0.3-0.5,0.7,0,1.1c3.2-4.5,2.8-9.3-1.3-12.9C258.7,265.7,257.8,265.1,256.7,265z"/>
		<path fill="#737D83" d="M148.6,148c4.4,3.2,5,9.8,1.5,13.6c-0.6-0.5,0-0.8,0.1-1.2c1.4-3.5,0.4-7.7-2.4-10.2
			c-0.3-0.2-3-2.2-4.4-2.1c-0.4,0-0.8,0-1.2-0.1c-1.8-0.4-3.4,0.7-5.1,0.9C140.1,146.3,144.5,145.3,148.6,148z"/>
		<path fill="#7F8C8D" d="M248.1,266.3c2.2,0,4.4-0.3,6.6-0.6c0.4-0.1,0.8-0.6,0.8-1.2C252.8,264.2,250.3,264.5,248.1,266.3z"/>
	</g>
</g>
<g>
	<path fill="#BF7B19" d="M943-1796.8c-4.3,14.2-6.6,28.8-8.7,43.4c-4,27.9-6,56-5,84.2c4.3,123,47.5,230.2,130.8,320.9
		c48.7,53.1,106.6,93,173.1,120.5c40.6,16.8,82.8,27.7,126.5,33.1c38.6,4.7,77.1,5.1,115.7,0.7c72.9-8.3,140.8-31.8,203.2-70.5
		c30.1-18.7,57.9-40.3,83.3-65c48.7-47.4,86.2-102.5,112.2-165.3c16.8-40.7,27.8-83,33.2-126.9c5.7-46.1,5.1-92.2-2.4-137.9
		c-15.6-95.9-56.1-180.1-121.3-252.2c-52.9-58.4-116.4-101.5-190.1-129.5c-36.5-13.8-74.2-23-113-27.8c-38.6-4.7-77.1-4.8-115.7-0.7
		c-19.4,2.1-38.5,5.5-57.5,9.9c-0.8,0.2-1.5,0.6-2.3,1c0.4,2.8,2.9,2.9,4.8,3.6c14.5,5.5,29.1,10.8,43.4,16.7
		c24.5,10.1,49.4,19,73.6,29.7c12.8,5.6,25.6,11.1,38.4,16.7c30.2,13.1,59.6,27.9,88.4,43.9c10.8,6,21.6,11.8,31.8,18.8
		c3,2,6.3,3.1,9.9,2.9c7.1-1,13.9-3.4,20.8-5.1c3-0.7,4-3.2,4.7-5.9c1.9-7.4,3.5-14.9,5.4-22.1c1.5,8,4.1,15.8,5.8,23.9
		c0.5,2.3,2.1,3.7,4.4,4.3c7.9,2.1,15.8,4.1,23.6,5.9c-6.6,1.6-13.5,3.5-20.4,5c-4.8,1-7.8,3.3-8.4,8.4c-0.3,2.6-1.6,5.1-1.6,7.8
		c-0.2,3.2,1.3,5.3,3.8,7.1c21.6,16,41.9,33.5,61,52.3c14.2,14,27.3,29.2,39.5,45.1c21.1,27.6,39.3,57.1,53.2,89
		c8.8,20.2,16.4,40.8,22.3,62c6.6,23.8,11.6,47.9,14.7,72.4c2,15.8,1.6,31.6,1.7,47.4c0.1,30-4.6,59.4-12.7,88.2
		c-7.3,26-17.2,51.1-30.3,74.9c-11.3,20.5-23.9,40.1-38.9,58c-18.6,22.1-38.8,42.5-62.3,59.6c-3.6,2.6-8.3,4.6-9.8,9.5
		c0.3,7.2,0.9,8.6,14.9,10.4c-12.4,0.6-13.7,1.9-16.8,15.6c-0.3-11.5-3-14.3-14.7-15.5c-3.8,0.1-7.1,2-10.2,3.9
		c-19.7,12.4-41.1,21.4-62.9,29.1c-24.6,8.6-50,14-75.9,17.1c-21.3,2.6-42.6,2.6-63.8,1.7c-19.3-0.8-38.3-4.1-57.2-8.2
		c-19.4-4.2-38.6-9.2-57.3-15.6c-25.1-8.6-49.3-19.2-72.4-32.3c-20.9-11.9-40.8-25.1-59.6-40.2c-25.9-20.8-49.3-44.1-70.7-69.6
		c-16-19.1-30.7-39-44.1-59.9c-15.6-24.2-30.5-48.9-43-74.9c-1.6-3.3-3.8-6.3-5.2-9.7c-0.4-0.7-0.9-1.6-1.7-1.5
		c-2.8,0.2-0.5-1.4-0.8-2c-0.8-5.6-4.1-10.2-6.5-15c-11.4-22.8-21-46.4-31.1-69.8c-13.1-30.4-24.7-61.5-36.8-92.3
		c-3.4-8.5-6.4-17.1-10-25.5C945.4-1794.5,945.5-1796.8,943-1796.8z"/>
	<path fill="#CC581B" d="M1595.1-2027.8c-6.2,0.8-10.1-3.8-14.6-6.5c-20.5-12.3-41.4-23.7-62.8-34.4c-13.9-7-28-13.7-42.1-20.3
		c-20-9.2-40.2-17.7-60.6-26.1c-32.5-13.5-65.3-26-98.1-38.9c-4-1.6-8.2-2.6-11.9-4.9c-1,0-2,0-3,0c-5.4-0.7-10.2,1.6-15.1,3
		c-40.4,11.6-78.9,27.5-115.1,48.8c-30.4,17.9-58.6,38.7-84.7,62.4c-12.7,11.5-24.5,23.9-35.9,36.8c-24.6,27.8-45.7,58.1-63.5,90.6
		c-18.9,34.5-33.2,70.8-43.4,108.8c-0.8,2.9-0.8,5.8-1.2,8.8c0,1,0,1.9,0,2.9c2.5,6,4.6,12.2,7,18.2c2.6,6.7,5.4,13.4,8.1,20.1
		c9.9,24.8,19.2,49.8,29.6,74.3c6.6,15.5,13.4,31,19.9,46.6c6.7,16.3,15.3,31.8,22.5,47.9c9.1,2.3,14-1.4,17-13.3
		c-0.3,11.4,7.2,13.9,16.3,14.5c0.5,0.3-0.5,1.1-0.2,0.5c0.1-0.3,0.1-0.5-0.2-0.5c-9.8-0.2-13,2.4-16.1,13.6
		c-1.3-3.5-1.1-7.9-4.2-10.3c-3-2.3-6.7-3.7-10.7-2.1c1.6,6.5,5.4,12.1,8.5,17.9c11.1,21.2,23.2,41.8,36,62
		c13.2,20.9,27.6,41,43.1,60.3c11.4,14.2,23.7,27.8,36.7,40.6c16.1,15.9,32.9,31,51.2,44.3c26.9,19.5,55.3,36.5,86,49.7
		c23.6,10.2,47.7,18.5,72.5,24.7c19.3,4.9,38.8,8.6,58.6,10.9c22,2.6,44.1,2.8,66,1.4c28.4-1.9,56.4-7.1,83.7-16.1
		c22.7-7.4,44.4-16.8,65.3-28c5.1-2.7,9.5-6.8,15.5-7.7c0.2-0.5-0.9-1.1,0-1.6c0.3-0.1,0.7,0,1-0.1c12.3-2.6,13.1-3.6,14.2-16.3
		c0-0.7,1.1,0.4,0.5,0.1c-0.2-0.1-0.4,0-0.3,0.3c0.2,2.2-0.5,4.8,2.4,5.8c2.1-4.2,6.4-6.2,9.8-8.8c15.9-12,30.8-25.1,44.5-39.7
		c13.2-14.1,25.5-28.8,36.5-44.7c12-17.4,22.3-35.7,31.1-54.8c7.7-16.6,13.9-33.7,18.9-51.2c4.8-16.7,8.2-33.7,10.4-51
		c1.7-13.5,3.4-27,3.2-40.6c-0.3-15.7,0.1-31.5-2-47.2c-1.5-11-2.9-22-5.1-32.8c-3-15-6.5-29.9-11-44.6
		c-5.6-18.3-11.9-36.3-19.5-53.8c-7.5-17.2-16.1-33.8-25.8-50c-7.1-11.8-14.9-23.1-22.8-34.4c-7.4-10.6-15.8-20.5-24.3-30.2
		c-10-11.5-20.6-22.5-31.7-32.9c-15.8-14.8-32.3-28.6-49.5-41.7c-2.3-1.7-5.3-3.2-4.7-6.9c-4.1,3.6-3.4,8.7-4.6,12.8
		c-1.9-5.4-2.2-12.1-5.2-18c-6-3.5-10.9-8.9-17.8-11c0,0,1.1-0.6,0.9-1.3c-4.1-3.3-9.2-3.2-13.9-4.3c0.3-0.4,1,0,1.5,0
		c0.7,0,1.3,0,2-0.2C1594.5-2026.3,1595.1-2026.8,1595.1-2027.8z"/>
	<path fill="#F0F0F0" d="M896.9-2178.8c32.7,59.4,59.1,125.5,54.3,192.9c-42.2-2.3-84.2-8.9-125.1-19.5
		c56.7,55.4,87.3,131.4,116.4,205.2c20.8-72.5,53.7-140.3,102.5-198.2c11.7-13.8,24.1-27,37.2-39.4
		c61.3-58.1,137.6-99.9,219.4-121.1c-73.7-29.6-149.6-60.6-205.5-117.1c2.3,10.6,4.9,21.1,7.3,31.8c4.3,19.7,7.9,39.5,9.9,59.7
		c1,10,1.1,20.2,2.7,30.1c0.7,4.1-1.7,4.6-5.1,4.7c-86.7,2-156.8-44.8-231.6-80.8c-3.2-1.5-6.2-3.3-9-5.3c-1.5-1.1-3.2-2.5-4.9-1
		c-1.9,1.6-0.4,3.4,0.4,4.9c2.2,3.9,4.5,7.8,6.9,11.6C880.8-2207,889-2193.1,896.9-2178.8z"/>
	<path fill="#FEFFFF" d="M1620.2-2008.9c1.9,6.9,3.8,13.8,6,22c1.8-6.6,3.2-11.9,4.7-17.1c0.8-3.7,1.8-7.4,2.5-11.1
		c0.5-2.9,2.7-3,4.7-3.5c8.5-2.2,17-4.2,25.7-7.1c-8.2-2.1-16.4-4.4-24.7-6.1c-3.8-0.8-5.4-2.4-6.2-6.2c-1.7-8.4-4.1-16.6-6.6-26.4
		c-2.3,9.1-4.6,16.6-6,24.4c-0.9,5-2.7,7.8-8.2,8.5c-5.7,0.7-11.3,2.6-16.9,3.9c-1.7,1.8-4.7,0.3-6.3,2.5c5.1,1.4,10.2,2.9,15.3,4.3
		c1.6,1.6,3.6,2.1,5.8,2.5c4.5,0.7,8.2,2.4,9.1,7.5C1619-2010.2,1619.4-2009.4,1620.2-2008.9z"/>
	<path fill="#FAFBFB" d="M1032.1-1587.1c0.2,0,0.3,0,0.5,0.1c7.5,0.4,12.5,3.4,12.7,11.7c0,1.4,0.8,2.7,1.7,5.4
		c1.1-4.1,2.3-7,2.7-10c0.4-4.1,2.6-5.6,6.3-6.1c2.9-0.4,5.8-1.4,9.1-2.3c-3.4-2.4-7.1-2.6-10.6-3.3c-2.8-0.6-3.9-1.8-4.4-4.4
		c-0.7-3.5-1.8-6.9-3.5-10.3c-0.8,3.1-1.9,6.2-2.4,9.4c-0.5,3.5-2.1,5.2-5.7,5.6c-2.8,0.3-5.5,1.1-8.3,1.7
		C1027.6-1586.3,1032.7-1588.9,1032.1-1587.1z"/>
	<path fill="#FAFBFC" d="M1672.8-1338.7c-0.7-2.5-1.4-5-2.5-8.8c-1.2,4.7-2.5,8.3-3.1,12c-0.4,2.6-1.6,3.5-4,4.1
		c-3.6,0.9-7.4,0.9-10.8,2.9c1,0.5,1.8,1,2.7,1.4c8.5,0.1,13.5,3.9,13.8,12.8c0.1,1.3,0.7,2.5,0.9,3.3c0.6,0.8,0.9,0.7,0.9,0.2
		c0.7-10.9,5.7-17.5,18-17c-2.9-2.2-5.8-2.8-8.6-3.1C1675.2-1331.3,1672.9-1333.8,1672.8-1338.7z"/>
	<path fill="#ECF0F2" d="M1719.9-1455.9c12.2-15.8,21.6-33.1,29.9-51.1c12.2-26.4,20.4-54.1,24.8-82.9c3.7-23.9,4.4-48,2.6-72.2
		c-2.7-37.2-12-72.6-27.4-106.4c-17.7-38.6-42.2-72.3-73.7-101c-23.4-21.4-49.3-39-78-52.5c-15.8-7.5-32.2-13.6-49.1-18.2
		c-2.7-0.7-4-2-4.9-4.7c-12-36.7-44.2-58.6-82.5-55.7c-6.8,0.5-13.5,1.9-19.8,4.7c-3.5,1.6-6.1,0.8-9.1-1.3
		c-21.5-15.2-44.9-26.5-70.3-33.7c-31.2-8.8-62.7-11.2-94.9-7.2c-38.7,4.9-74,18.5-105.9,41c-1.3,1-2.6,2.1-3.8,3.2
		c-15.6,19.6-25.6,42-33,65.7c-7.7,24.9-11.2,50.3-10.4,76.4c0.1,3.5,0.3,7,0.9,10.4c0.7,3.9-0.5,6.6-4.2,8.6
		c-12.1,6.8-21.2,16.3-26.6,29.5c-8.3,20.4-4.6,48.8,12.5,65.4c15.8,15.3,33.9,20.8,55.2,16.8c2.9-0.5,5.6-1.1,7.4,2.1
		c2,3.3,5.2,5.9,2.6,10.7c-8.5,15.6-10.8,32.5-7.7,49.9c4.4,24.7,17.8,43.3,39.5,56c16.8,9.8,34.8,11.6,53.6,9
		c2.9-0.4,4.3,0.7,5.3,3.2c10.9,26.1,25.9,49.9,43.5,72c17,21.2,36.6,39.6,58.4,55.7c4.9,3.6,7.6,2.8,8-2.4
		c0.9-14.9,7.6-27.4,16.1-39.2c0.8-1,1.4-2.1,2.2-3.7c-8.7,14.3-12.6,29.5-11.7,45.6c1.4,27.3,14.1,48.6,36.7,63.7
		c20.1,13.4,42.3,14.7,65.3,9.5c6.6-1.5,13.1-4,18.1-8.3c7.7-6.5,16-5.9,24.8-5.1c15.2,1.4,30.5,3,45.8,0.9c3.1-0.4,6.3,0,9.5-0.3
		c6.5-0.5,7.8-2.2,5.6-8.3c-4.2-11.6-1.6-22.2,2.4-30c-2.3,3.9-2.8,11-2,18.1c1.8,16.1,14.7,31.7,30.6,34.5c21.8,4,40.1-3,48.5-27.8
		c1.6-4.7,3.5-7.8,8.2-9.6c17.6-6.9,34-16,49.9-26.2C1715.5-1452.4,1717.7-1454.1,1719.9-1455.9z"/>
	<path fill="#BEC3C7" d="M1719.9-1455.9c-8.4,3.3-15.6,8.8-23.2,13.4c-11.3,6.8-23.2,11.9-35.2,17.1c-4.4,1.9-6.3,4.4-7.5,8.8
		c-3.9,14.6-13,24.4-27.9,28.2c-16.1,4.1-36.1-3.8-43.6-17.8c-6.3-11.7-8.4-24.1-1.6-36.6c0.5-0.9,1.4-1.9,0.6-3.3
		c-1.8,0.4-2.7,1.8-3.5,3.2c-5.7,10.6-8.3,21.6-3.9,33.5c2.1,5.6,1.5,6.5-4.2,6.5c-9.8,0-19.5,1.7-29.4,1.1
		c-12.4-0.8-24.8-0.9-37.1-3c-5.3-0.9-8.4,2.7-11.9,5.1c-10.9,7.3-22.8,11.3-35.9,11.9c-13.8,0.7-27.1-0.6-39.7-6.8
		c-8.7-4.3-16.6-9.7-23.1-16.8c-9.1-9.9-16-21-19.4-34.2c-5-19.5-2.2-38.1,5.8-56.2c1.4-3.2,3.7-6,5.2-9.3
		c-4.5,2.6-6.8,7.3-9.6,11.3c-7.3,10.5-12.4,21.9-12.8,35c-0.1,4.1-1.5,4.7-4.8,2.3c-11.3-8.4-21.9-17.7-32.2-27.2
		c-11.7-10.7-21.9-22.7-31.6-35.1c-8.8-11.2-16.8-23-23.7-35.5c-5.9-10.6-11.8-21.1-15.9-32.6c-0.8-2.1-2.3-2.5-4.8-2
		c-16.6,3.2-33.2,2.1-48.2-5.3c-24.9-12.3-40.7-32.1-45-60.3c-1.8-12.1-0.3-23.8,2.6-35.4c1.2-4.7,3.7-9.1,6.1-13.4
		c1.3-2.2,0.8-3.4-0.1-5.7c-3.5-8.5-9.6-8.4-17.1-6.6c-12.1,2.9-23.6-0.5-34.2-5.8c-15.7-8-26.5-21-30-38.3
		c-5.5-27.1,3.1-51.5,29.1-65.9c4.3-2.4,5.1-5.1,4.6-9.1c-1.9-16.1-1.1-32.1,0.9-48.1c1.9-14.8,5.4-29.2,9.9-43.5
		c6-19.4,15.3-37.1,25.9-54.3c1.5-2.4,4.1-4,4.3-7.1c-10.7,6.7-19.8,15.2-28.5,24.1c-18.6,18.8-33.7,40.3-45,64.3
		c-11.9,25.3-19.1,51.9-21.6,79.9c-3.6,40.8,2.8,79.9,19.3,117.3c10.4,23.4,24.3,44.6,41.8,63.4c7.4,8,15.2,15.4,23.5,22.3
		c2.2,1.8,3.3,3.8,3.4,6.8c0.3,12.8,2.2,25.5,4.6,38c7,36,19.8,69.8,38.7,101.2c21.1,35,47.9,64.8,80.5,89.6
		c35.2,26.7,74.2,44.7,116.9,55.2c12,3,24.3,4.6,36.6,6.3c17,2.3,34.1,2.3,51.1,1.7c24.8-0.9,49.2-5.2,73-12.1
		c37.8-11,72.2-28.7,103.5-52.6c24.1-18.5,44.7-40.3,62.8-64.5C1719.1-1454,1719.4-1455,1719.9-1455.9z"/>
	<path fill="#17414E" d="M1620.2-2008.9c-1.1-8.7-1.1-8.7-9.3-10.7c-2.3-0.5-4.5-0.9-6.8-1.4c-0.3,0.4-1.8,0.5-1.1,0.9
		C1608.8-2016.5,1613.9-2011.8,1620.2-2008.9z"/>
	<path fill="#94A5A5" d="M1415.8-1965.9c-8.1,10.9-13.6,22.8-15,36.5c-2.7,27,7.9,48.1,29.2,63.6c15.5,11.3,33.5,14.3,52.6,10.6
		c11-2.1,20.5-7.1,29.4-13.7c9.7-13.4,13.3-28.5,12.2-44.7c-0.6-9.3-3.1-18.4-7.7-26.6c-3.4-6.2-6.1-12.9-12-17.6
		c-15.9-12.7-33.2-21.1-54.3-19.7C1437.6-1976.6,1426.2-1973.1,1415.8-1965.9z"/>
	<path fill="#94A5A5" d="M1396.8-1509.9c-8.1,8.4-12.1,18.9-14.7,30c-2.3,9.8-2.2,20,0.2,29.6c3.8,15.3,11.9,28.3,24.4,38.3
		c11.6,9.3,25.1,14.5,39.8,14.9c17.7,0.5,34.1-4.3,47.6-16.5c2.8-5.6,6.2-11.1,7.8-17.2c6.4-25.3,2.4-48.5-15.8-67.8
		c-21.9-23.2-54.1-29.3-83.4-14.9C1400.5-1512.6,1399.3-1510.2,1396.8-1509.9z"/>
	<path fill="#94A5A5" d="M1181.1-1716.8c-9.8,11.8-15.4,25.2-16.2,40.7c-0.8,15.9,2.7,30.7,12.3,43.5c6.8,9,14.7,16.7,25.3,21.8
		c21,10,41.6,9.8,62.4-0.3c4.8-2.3,9.1-5,13-8.6c1.8-4.6,5-8.6,6.5-13.4c6.2-19.8,6.1-39.4-4.2-57.6c-13-23-33.2-35.3-59.8-36.4
		c-13.5-0.6-26.1,2.7-37.6,9.9C1182.4-1716.9,1181.8-1716.6,1181.1-1716.8z"/>
	<path fill="#94A5A5" d="M1609.2-1753.7c-7.2,7.9-11.3,17.2-12.3,27.9c-1.3,14.5,3,27.3,12.8,37.9c7.7,8.4,17.2,13.3,28.7,15.2
		c14.8,2.4,27.1-2.5,39-10.3c0.6-0.4,1-1.3,1.5-1.9c1.3-3.9,3.8-7.2,5.1-11.1c9.2-28.3-8.9-59.5-38.1-64.6
		C1633.1-1762.8,1620.3-1761.8,1609.2-1753.7z"/>
	<path fill="#94A5A5" d="M1102.9-1811.9c-14.5,15.5-16,42.3-3.4,59.1c10.3,13.8,23.6,21.9,41.1,21.7c11.7-0.1,22.4-4,31.4-11.7
		c12.3-15.5,11.1-42.9-1.8-58.6c-9.4-11.4-21.4-18.2-36.4-18.9c-7.9-0.4-15.5,0.3-23,3.3C1107.8-1815.6,1105.8-1813.2,1102.9-1811.9
		z"/>
	<path fill="#7F8C8D" d="M1396.8-1509.9c0.8,1.2,1.5,0.7,2.5,0.2c24.5-14.2,48.8-13.8,72.8,1.3c17.2,10.8,27.4,26.5,30.5,46.3
		c2.5,15.7,0,31.1-8.1,45.2c-0.6,1-2.3,2-0.4,3.3c38.8-32.5,28.9-93.8-15.5-114.7C1452.2-1540.7,1418.5-1535.7,1396.8-1509.9z"/>
	<path fill="#7F8C8D" d="M1181.1-1716.8c0,1.8,0.8,1.2,1.8,0.7c8.2-4.5,16.7-8,26-9.2c18-2.4,34.4,1.6,49.4,12.1
		c11.7,8.2,20.5,18.6,24.9,32.1c6.4,19.3,5.8,38.5-4.3,56.7c-0.7,1.3-2.9,2.7-0.9,4.7c25.2-21,31-55.7,16.3-84.1
		c-10.6-20.4-27.4-32.9-50.6-36.1C1218.6-1743.4,1198-1735,1181.1-1716.8z"/>
	<path fill="#7F8C8D" d="M1415.8-1965.9c0.8,1.1,1.6,0.7,2.5,0.1c21.9-15.1,54.9-13.4,75.7,2.3c2.6,1.9,5.8,3.1,8,5.3
		c21.9,22.4,26.6,53.3,14.3,80.5c-1.4,3-4.5,5.2-4.3,8.9c30.8-24.8,34.7-69.4,8.7-98.9c-13.6-15.4-30.3-22.9-51.2-23
		C1447.3-1990.8,1430.1-1981.9,1415.8-1965.9z"/>
	<path fill="#94A5A5" d="M1598-1449.8c-9.3,5.8-12.8,21.5-10.7,29.1c3.3,12,10.6,20.3,23.5,22.9c11.5,2.4,20.6-1.7,28.2-10
		c3.4-7.9,4.1-15.7,1.3-24.1c-2.1-6.2-6-10.7-10.8-14.4c-2.8-2.1-4.2-4.1-3.5-7.6c-0.4-1.4-3.1-0.6-2.7-2.9c0.1-0.5-0.4-0.6-1.3,1
		c-2.9,2.8-6.3,4.1-10.4,3.6C1606.8-1452.8,1602.6-1450.6,1598-1449.8z"/>
	<path fill="#94A5A5" d="M1254.4-1835.2c-6.1-0.9-11.4,1.4-16.6,4.2c-2.1,0.2-6.9,8.1-7.5,10.6c-1.1,5.2,1.5,9.5-0.8,9.2
		c-2.5,11.6,5.1,23,15.9,28.5c11.3,5.7,25.4,2.7,34.5-7c2.2-5.2,3.5-10.5,3.3-16.3c-0.2-7.8-3-14.2-8.1-19.8
		C1271.3-1830.1,1259.7-1834.4,1254.4-1835.2z"/>
	<path fill="#B1B2B3" d="M1514.6-1857.5c-33.7,21.1-69.2,17.1-93.6-3.1c-36-29.9-38.5-66.5-17.9-106.6c-19,20.1-26.5,43.9-20.6,70.9
		c7.2,33.4,31.7,54.5,59.4,60.3C1470-1830.1,1494.2-1837.6,1514.6-1857.5z"/>
	<path fill="#B1B2B3" d="M1678-1670.9c-33.1,15.7-61.2,10.9-82.2-19.2c-9.5-13.5-15.2-36.4,0.7-63.9c-11.2,6.2-21.6,30.9-19.5,47.2
		c3.5,26.1,17.3,44.5,42.7,52.1C1640.2-1648.6,1665-1654.8,1678-1670.9z"/>
	<path fill="#7F8C8D" d="M1102.9-1811.9c4.1-0.4,7.1-3.3,10.8-4.6c31.1-10.9,65,11.2,65.4,44.1c0.1,10.1-1.7,19.4-7.1,28
		c-0.4,0.6-0.7,1.1,0,1.7c25.5-22.9,22-62.1-7.1-80.1c-14.7-9.1-37.6-8.2-51.6,1.7C1109.5-1818.3,1105.8-1815.6,1102.9-1811.9z"/>
	<path fill="#7F8C8D" d="M1609.2-1753.7c3.1,1,5-1.8,7.4-2.7c30.6-12.1,60.7,5.6,67.4,34.9c2.7,11.9,0.4,23.1-4.8,33.8
		c-0.5,0.9-1.9,1.8-0.2,2.9c9.6-9,15.2-20.1,15.9-33.3c1-20.3-11.2-40.5-28.3-47.6C1645.6-1774.6,1624.9-1770.2,1609.2-1753.7z"/>
	<path fill="#B2B3B2" d="M1277.2-1774.7c-5.3,1-10.1,3.6-15.5,4.1c-11.5,1.2-21.1-2.1-29.6-9.6c-11.8-10.4-15.5-23.3-12-38.5
		c0.4-1.8,0.2-3.2-1.5-3.6c-2.1-0.6-1.8,1.6-2.1,2.6c-5.7,17.9-2.5,33.7,12.2,45.9c11.8,9.8,29,10.8,42.7,4c2.2-1.1,4.2-2.5,6.3-3.7
		C1277.5-1773.9,1277.4-1774.3,1277.2-1774.7z"/>
	<path fill="#7F8C8D" d="M1626-1453.9c-0.6,1-1.1,2-1.9,2.9c-1.5,1.5-1.1,2.2,0.7,3.2c14.1,8,19.1,21.1,14.2,36.5
		c-0.3,1.1-1.7,2.4,0,3.5c10.5-14.6,9-30.2-4.2-41.8C1632.3-1451.8,1629.5-1453.6,1626-1453.9z"/>
	<path fill="#737D83" d="M1275-1833.9c14.2,10.5,16.4,31.7,5,44.2c-1.8-1.5-0.1-2.7,0.4-3.9c4.5-11.5,1.3-25.1-7.8-33.2
		c-0.8-0.8-9.6-7.2-14.3-6.7c-1.2,0.1-2.6-0.2-3.9-0.4c-5.9-1.2-11,2.2-16.6,3C1247.3-1839.4,1261.7-1842.6,1275-1833.9z"/>
	<path fill="#7F8C8D" d="M1598-1449.8c7.2,0,14.3-0.9,21.3-2.1c1.3-0.2,2.6-2,2.6-3.9C1613.3-1456.5,1605.1-1455.6,1598-1449.8z"/>
</g>
<g>
	<path fill="#BF7B19" d="M519,134.2c-4.3,14.2-6.6,28.8-8.7,43.4c-4,27.9-6,56-5,84.2c4.3,123,47.5,230.2,130.8,320.9
		c48.7,53.1,106.6,93,173.1,120.5c40.6,16.8,82.8,27.7,126.5,33.1c38.6,4.7,77.1,5.1,115.7,0.7c72.9-8.3,140.8-31.8,203.2-70.5
		c30.1-18.7,57.9-40.3,83.3-65c48.7-47.4,86.2-102.5,112.2-165.3c16.8-40.7,27.8-83,33.2-126.9c5.7-46.1,5.1-92.1-2.4-137.9
		c-15.6-95.9-56.1-180.1-121.3-252.2c-52.9-58.4-116.4-101.5-190.1-129.5c-36.5-13.8-74.2-23-113-27.8c-38.6-4.7-77.1-4.8-115.7-0.7
		c-19.4,2.1-38.5,5.5-57.5,9.9c-0.8,0.2-1.5,0.6-2.3,1c0.4,2.8,2.9,2.9,4.8,3.6c14.5,5.5,29.1,10.8,43.4,16.7
		c24.5,10.1,49.4,19,73.6,29.7c12.8,5.6,25.6,11.1,38.4,16.7c30.2,13.1,59.6,27.9,88.4,43.9c10.8,6,21.6,11.8,31.8,18.8
		c3,2,6.3,3.1,9.9,2.9c7.1-1,13.9-3.4,20.8-5.1c3-0.7,4-3.2,4.7-5.9c1.9-7.4,3.5-14.9,5.4-22.1c1.5,8,4.1,15.8,5.8,23.9
		c0.5,2.3,2.1,3.7,4.4,4.3c7.9,2.1,15.8,4.1,23.6,5.9c-6.6,1.6-13.5,3.5-20.4,5c-4.8,1-7.8,3.3-8.4,8.4c-0.3,2.6-1.6,5.1-1.6,7.8
		c-0.2,3.2,1.3,5.3,3.8,7.1c21.6,16,41.9,33.5,61,52.3c14.2,14,27.3,29.2,39.5,45.1c21.1,27.6,39.3,57.1,53.2,89
		c8.8,20.2,16.4,40.8,22.3,62c6.6,23.8,11.6,47.9,14.7,72.4c2,15.8,1.6,31.6,1.7,47.4c0.1,30-4.6,59.4-12.7,88.2
		c-7.3,26-17.2,51.1-30.3,74.9c-11.3,20.5-23.9,40.1-38.9,58c-18.6,22.1-38.8,42.5-62.3,59.6c-3.6,2.6-8.3,4.6-9.8,9.5
		c0.3,7.2,0.9,8.6,14.9,10.4c-12.4,0.6-13.7,1.9-16.8,15.6c-0.3-11.5-3-14.3-14.7-15.5c-3.8,0.1-7.1,2-10.2,3.9
		c-19.7,12.4-41.1,21.4-62.9,29.1c-24.6,8.6-50,14-75.9,17.1c-21.3,2.6-42.6,2.6-63.8,1.7c-19.3-0.8-38.3-4.1-57.2-8.2
		c-19.4-4.2-38.6-9.2-57.3-15.6c-25.1-8.6-49.3-19.2-72.4-32.3c-20.9-11.9-40.8-25.1-59.6-40.2c-25.9-20.8-49.3-44.1-70.7-69.6
		c-16-19.1-30.7-39-44.1-59.9c-15.6-24.2-30.5-48.9-43-74.9c-1.6-3.3-3.8-6.3-5.2-9.7c-0.4-0.7-0.9-1.6-1.7-1.5
		c-2.8,0.2-0.5-1.4-0.8-2c-0.8-5.6-4.1-10.2-6.5-15c-11.4-22.8-21-46.4-31.1-69.8c-13.1-30.4-24.7-61.5-36.8-92.3
		c-3.4-8.5-6.4-17.1-10-25.5C521.4,136.5,521.5,134.2,519,134.2z"/>
	<path fill="#CC581B" d="M1171.1-96.8c-6.2,0.8-10.1-3.8-14.6-6.5c-20.5-12.3-41.4-23.7-62.8-34.4c-13.9-7-28-13.7-42.1-20.3
		c-20-9.2-40.2-17.7-60.6-26.1c-32.5-13.5-65.3-26-98.1-38.9c-4-1.6-8.2-2.6-11.9-4.9c-1,0-2,0-3,0c-5.4-0.7-10.2,1.6-15.1,3
		c-40.4,11.6-78.9,27.5-115.1,48.8c-30.4,17.9-58.6,38.7-84.7,62.4c-12.7,11.5-24.5,23.9-35.9,36.8c-24.6,27.8-45.7,58.1-63.5,90.6
		c-18.9,34.5-33.2,70.8-43.4,108.8c-0.8,2.9-0.8,5.8-1.2,8.8c0,1,0,1.9,0,2.9c2.5,6,4.6,12.2,7,18.2c2.6,6.7,5.4,13.4,8.1,20.1
		c9.9,24.8,19.2,49.8,29.6,74.3c6.6,15.5,13.4,31,19.9,46.6c6.7,16.3,15.3,31.8,22.5,47.9c9.1,2.3,14-1.4,17-13.3
		c-0.3,11.4,7.2,13.9,16.3,14.5c0.5,0.3-0.5,1.1-0.2,0.5c0.1-0.3,0.1-0.5-0.2-0.5c-9.8-0.2-13,2.4-16.1,13.6
		c-1.3-3.5-1.1-7.9-4.2-10.3c-3-2.3-6.7-3.7-10.7-2.1c1.6,6.5,5.4,12.1,8.5,17.9c11.1,21.2,23.2,41.8,36,62
		c13.2,20.9,27.6,41,43.1,60.3c11.4,14.2,23.7,27.8,36.7,40.6c16.1,15.9,32.9,31,51.2,44.3c26.9,19.5,55.3,36.5,86,49.7
		c23.6,10.2,47.7,18.5,72.5,24.7c19.3,4.9,38.8,8.6,58.6,10.9c22,2.6,44.1,2.8,66,1.4c28.4-1.9,56.4-7.1,83.7-16.1
		c22.7-7.4,44.4-16.8,65.3-28c5.1-2.7,9.5-6.8,15.5-7.7c0.2-0.5-0.9-1.1,0-1.6c0.3-0.1,0.7,0,1-0.1c12.3-2.6,13.1-3.6,14.2-16.3
		c0-0.7,1.1,0.4,0.5,0.1c-0.2-0.1-0.4,0-0.3,0.3c0.2,2.2-0.5,4.8,2.4,5.8c2.1-4.2,6.4-6.2,9.8-8.8c15.9-12,30.8-25.1,44.5-39.7
		c13.2-14.1,25.5-28.8,36.5-44.7c12-17.4,22.3-35.7,31.1-54.8c7.7-16.6,13.9-33.7,18.9-51.2c4.8-16.7,8.2-33.7,10.4-51
		c1.7-13.5,3.4-27,3.2-40.6c-0.3-15.7,0.1-31.5-2-47.2c-1.5-11-2.9-22-5.1-32.8c-3-15-6.5-29.9-11-44.6
		c-5.6-18.3-11.9-36.3-19.5-53.8c-7.5-17.2-16.1-33.8-25.8-50c-7.1-11.8-14.9-23.1-22.8-34.4c-7.4-10.6-15.8-20.5-24.3-30.2
		c-10-11.5-20.6-22.5-31.7-32.9c-15.8-14.8-32.3-28.6-49.5-41.7c-2.3-1.7-5.3-3.2-4.7-6.9c-4.1,3.6-3.4,8.7-4.6,12.8
		c-1.9-5.4-2.2-12.1-5.2-18c-6-3.5-10.9-8.9-17.8-11c0,0,1.1-0.6,0.9-1.3c-4.1-3.3-9.2-3.2-13.9-4.3c0.3-0.4,1,0,1.5,0
		c0.7,0,1.3,0,2-0.2C1170.5-95.3,1171.1-95.8,1171.1-96.8z"/>
	<path fill="#F0F0F0" d="M472.9-247.8C505.5-188.5,532-122.3,527.1-55c-42.2-2.3-84.2-8.9-125.1-19.5
		c56.7,55.4,87.3,131.4,116.4,205.2C539.1,58.1,572-9.7,620.9-67.5c11.7-13.8,24.1-27,37.2-39.4c61.3-58.1,137.6-99.9,219.4-121.1
		c-73.7-29.6-149.6-60.6-205.5-117.1c2.3,10.6,4.9,21.1,7.3,31.8c4.3,19.7,7.9,39.5,9.9,59.7c1,10,1.1,20.2,2.7,30.1
		c0.7,4.1-1.7,4.6-5.1,4.7c-86.7,2-156.8-44.8-231.6-80.8c-3.2-1.5-6.2-3.3-9-5.3c-1.5-1.1-3.2-2.5-4.9-1c-1.9,1.6-0.4,3.4,0.4,4.9
		c2.2,3.9,4.5,7.8,6.9,11.6C456.8-276,465-262.1,472.9-247.8z"/>
	<path fill="#FEFFFF" d="M1196.2-77.9c1.9,6.9,3.8,13.8,6,22c1.8-6.6,3.2-11.9,4.7-17.1c0.8-3.7,1.8-7.4,2.5-11.1
		c0.5-2.9,2.7-3,4.7-3.5c8.5-2.2,17-4.2,25.7-7.1c-8.2-2.1-16.4-4.4-24.7-6.1c-3.8-0.8-5.4-2.4-6.2-6.2c-1.7-8.4-4.1-16.6-6.6-26.4
		c-2.3,9.1-4.6,16.6-6,24.4c-0.9,5-2.7,7.8-8.2,8.5c-5.7,0.7-11.3,2.6-16.9,3.9c-1.7,1.8-4.7,0.3-6.3,2.5c5.1,1.4,10.2,2.9,15.3,4.3
		c1.6,1.6,3.6,2.1,5.8,2.5c4.5,0.7,8.2,2.4,9.1,7.5C1195-79.2,1195.4-78.4,1196.2-77.9z"/>
	<path fill="#FAFBFB" d="M608.1,343.9c0.2,0,0.3,0,0.5,0.1c7.5,0.4,12.5,3.4,12.7,11.7c0,1.4,0.8,2.7,1.7,5.4c1.1-4.1,2.3-7,2.7-10
		c0.4-4.1,2.6-5.6,6.3-6.1c2.9-0.4,5.8-1.4,9.1-2.3c-3.4-2.4-7.1-2.6-10.6-3.3c-2.8-0.6-3.9-1.8-4.4-4.4c-0.7-3.5-1.8-6.9-3.5-10.3
		c-0.8,3.1-1.9,6.2-2.4,9.4c-0.5,3.5-2.1,5.2-5.7,5.6c-2.8,0.3-5.5,1.1-8.3,1.7C603.6,344.7,608.7,342.1,608.1,343.9z"/>
	<path fill="#FAFBFC" d="M1248.8,592.3c-0.7-2.5-1.4-5-2.5-8.8c-1.2,4.7-2.5,8.3-3.1,12c-0.4,2.6-1.6,3.5-4,4.1
		c-3.6,0.9-7.4,0.9-10.8,2.9c1,0.5,1.8,1,2.7,1.4c8.5,0.1,13.5,3.9,13.8,12.8c0.1,1.3,0.7,2.5,0.9,3.3c0.6,0.8,0.9,0.7,0.9,0.2
		c0.7-10.9,5.7-17.5,18-17c-2.9-2.2-5.8-2.8-8.6-3.1C1251.2,599.7,1248.9,597.2,1248.8,592.3z"/>
	<path fill="#ECF0F2" d="M1295.9,475.1c12.2-15.8,21.6-33.1,29.9-51.1c12.2-26.4,20.4-54.1,24.8-82.9c3.7-23.9,4.4-48,2.6-72.2
		c-2.7-37.2-12-72.6-27.4-106.4c-17.7-38.6-42.2-72.3-73.7-101c-23.4-21.4-49.3-39-78-52.5c-15.8-7.5-32.2-13.6-49.1-18.2
		c-2.7-0.7-4-2-4.9-4.7c-12-36.7-44.2-58.6-82.5-55.7c-6.8,0.5-13.5,1.9-19.8,4.7c-3.5,1.6-6.1,0.8-9.1-1.3
		c-21.5-15.2-44.9-26.5-70.3-33.7c-31.2-8.8-62.7-11.2-94.9-7.2c-38.7,4.9-74,18.5-105.9,41c-1.3,1-2.6,2.1-3.8,3.2
		c-15.6,19.6-25.6,42-33,65.7c-7.7,24.9-11.2,50.3-10.4,76.4c0.1,3.5,0.3,7,0.9,10.4c0.7,3.9-0.5,6.6-4.2,8.6
		c-12.1,6.8-21.2,16.3-26.6,29.5c-8.3,20.4-4.6,48.8,12.5,65.4c15.8,15.3,33.9,20.8,55.2,16.8c2.9-0.5,5.6-1.1,7.4,2.1
		c2,3.3,5.2,5.9,2.6,10.7c-8.5,15.6-10.8,32.5-7.7,49.9c4.4,24.7,17.8,43.3,39.5,56c16.8,9.8,34.8,11.6,53.6,9
		c2.9-0.4,4.3,0.7,5.3,3.2c10.9,26.1,25.9,49.9,43.5,72c17,21.2,36.6,39.6,58.4,55.7c4.9,3.6,7.6,2.8,8-2.4
		c0.9-14.9,7.6-27.4,16.1-39.2c0.8-1,1.4-2.1,2.2-3.7c-8.7,14.3-12.6,29.5-11.7,45.6c1.4,27.3,14.1,48.6,36.7,63.7
		c20.1,13.4,42.3,14.7,65.3,9.5c6.6-1.5,13.1-4,18.1-8.3c7.7-6.5,16-5.9,24.8-5.1c15.2,1.4,30.5,3,45.8,0.9c3.1-0.4,6.3,0,9.5-0.3
		c6.5-0.5,7.8-2.2,5.6-8.3c-4.2-11.6-1.6-22.2,2.4-30c-2.3,3.9-2.8,11-2,18.1c1.8,16.1,14.7,31.7,30.6,34.5c21.8,4,40.1-3,48.5-27.8
		c1.6-4.7,3.5-7.8,8.2-9.6c17.6-6.9,34-16,49.9-26.2C1291.5,478.6,1293.7,476.9,1295.9,475.1z"/>
	<path fill="#BEC3C7" d="M1295.9,475.1c-8.4,3.3-15.6,8.8-23.2,13.4c-11.3,6.8-23.2,11.9-35.2,17.1c-4.4,1.9-6.3,4.4-7.5,8.8
		c-3.9,14.6-13,24.4-27.9,28.2c-16.1,4.1-36.1-3.8-43.6-17.8c-6.3-11.7-8.4-24.1-1.6-36.6c0.5-0.9,1.4-1.9,0.6-3.3
		c-1.8,0.4-2.7,1.8-3.5,3.2c-5.7,10.6-8.3,21.6-3.9,33.5c2.1,5.6,1.5,6.5-4.2,6.5c-9.8,0-19.5,1.7-29.4,1.1
		c-12.4-0.8-24.8-0.9-37.1-3c-5.3-0.9-8.4,2.7-11.9,5.1c-10.9,7.3-22.8,11.3-35.9,11.9c-13.8,0.7-27.1-0.6-39.7-6.8
		c-8.7-4.3-16.6-9.7-23.1-16.8c-9.1-9.9-16-21-19.4-34.2c-5-19.5-2.2-38.1,5.8-56.2c1.4-3.2,3.7-6,5.2-9.3
		c-4.5,2.6-6.8,7.3-9.6,11.3c-7.3,10.5-12.4,21.9-12.8,35c-0.1,4.1-1.5,4.7-4.8,2.3c-11.3-8.4-21.9-17.7-32.2-27.2
		c-11.7-10.7-21.9-22.7-31.6-35.1c-8.8-11.2-16.8-23-23.7-35.5c-5.9-10.6-11.8-21.1-15.9-32.6c-0.8-2.1-2.3-2.5-4.8-2
		c-16.6,3.2-33.2,2.1-48.2-5.3c-24.9-12.3-40.7-32.1-45-60.3c-1.8-12.1-0.3-23.8,2.6-35.4c1.2-4.7,3.7-9.1,6.1-13.4
		c1.3-2.2,0.8-3.4-0.1-5.7c-3.5-8.5-9.6-8.4-17.1-6.6c-12.1,2.9-23.6-0.5-34.2-5.8c-15.7-8-26.5-21-30-38.3
		c-5.5-27.1,3.1-51.5,29.1-65.9c4.3-2.4,5.1-5.1,4.6-9.1C691,74,691.8,58,693.9,42c1.9-14.8,5.4-29.2,9.9-43.5
		c6-19.4,15.3-37.1,25.9-54.3c1.5-2.4,4.1-4,4.3-7.1c-10.7,6.7-19.8,15.2-28.5,24.1c-18.6,18.8-33.7,40.3-45,64.3
		c-11.9,25.3-19.1,51.9-21.6,79.9c-3.6,40.8,2.8,79.9,19.3,117.3c10.4,23.4,24.3,44.6,41.8,63.4c7.4,8,15.2,15.4,23.5,22.3
		c2.2,1.8,3.3,3.8,3.4,6.8c0.3,12.8,2.2,25.5,4.6,38c7,36,19.8,69.8,38.7,101.2c21.1,35,47.9,64.8,80.5,89.6
		c35.2,26.7,74.2,44.7,116.9,55.2c12,3,24.3,4.6,36.6,6.3c17,2.3,34.1,2.3,51.1,1.7c24.8-0.9,49.2-5.2,73-12.1
		c37.8-11,72.2-28.7,103.5-52.6c24.1-18.5,44.7-40.3,62.8-64.5C1295.1,477,1295.4,476,1295.9,475.1z"/>
	<path fill="#17414E" d="M1196.2-77.9c-1.1-8.7-1.1-8.7-9.3-10.7c-2.3-0.5-4.5-0.9-6.8-1.4c-0.3,0.4-1.8,0.5-1.1,0.9
		C1184.8-85.5,1189.9-80.8,1196.2-77.9z"/>
	<path fill="#94A5A5" d="M991.8-34.9c-8.1,10.9-13.6,22.8-15,36.5c-2.7,27,7.9,48.1,29.2,63.6c15.5,11.3,33.5,14.3,52.6,10.6
		c11-2.1,20.5-7.1,29.4-13.7c9.7-13.4,13.3-28.5,12.2-44.7c-0.6-9.3-3.1-18.4-7.7-26.6c-3.4-6.2-6.1-12.9-12-17.6
		c-15.9-12.7-33.2-21.1-54.3-19.7C1013.6-45.6,1002.2-42.1,991.8-34.9z"/>
	<path fill="#94A5A5" d="M972.8,421.1c-8.1,8.4-12.1,18.9-14.7,30c-2.3,9.8-2.2,20,0.2,29.6C962,496,970.1,509,982.6,519
		c11.6,9.3,25.1,14.5,39.8,14.9c17.7,0.5,34.1-4.3,47.6-16.5c2.8-5.6,6.2-11.1,7.8-17.2c6.4-25.3,2.4-48.5-15.8-67.8
		c-21.9-23.2-54.1-29.3-83.4-14.9C976.5,418.4,975.3,420.8,972.8,421.1z"/>
	<path fill="#94A5A5" d="M757.1,214.2c-9.8,11.8-15.4,25.2-16.2,40.7c-0.8,15.9,2.7,30.7,12.3,43.5c6.8,9,14.7,16.7,25.3,21.8
		c21,10,41.6,9.8,62.4-0.3c4.8-2.3,9.1-5,13-8.6c1.8-4.6,5-8.6,6.5-13.4c6.2-19.8,6.1-39.4-4.2-57.6c-13-23-33.2-35.3-59.8-36.4
		c-13.5-0.6-26.1,2.7-37.6,9.9C758.4,214.1,757.8,214.4,757.1,214.2z"/>
	<path fill="#94A5A5" d="M1185.2,177.3c-7.2,7.9-11.3,17.2-12.3,27.9c-1.3,14.5,3,27.3,12.8,37.9c7.7,8.4,17.2,13.3,28.7,15.2
		c14.8,2.4,27.1-2.5,39-10.3c0.6-0.4,1-1.3,1.5-1.9c1.3-3.9,3.8-7.2,5.1-11.1c9.2-28.3-8.9-59.5-38.1-64.6
		C1209.1,168.2,1196.3,169.2,1185.2,177.3z"/>
	<path fill="#94A5A5" d="M678.9,119.1c-14.5,15.5-16,42.3-3.4,59.1c10.3,13.8,23.6,21.9,41.1,21.7c11.7-0.1,22.4-4,31.4-11.7
		c12.3-15.5,11.1-42.9-1.8-58.6c-9.4-11.4-21.4-18.2-36.4-18.9c-7.9-0.4-15.5,0.3-23,3.3C683.8,115.4,681.8,117.8,678.9,119.1z"/>
	<path fill="#7F8C8D" d="M972.8,421.1c0.8,1.2,1.5,0.7,2.5,0.2c24.5-14.2,48.8-13.8,72.8,1.3c17.2,10.8,27.4,26.5,30.5,46.3
		c2.5,15.7,0,31.1-8.1,45.2c-0.6,1-2.3,2-0.4,3.3c38.8-32.5,28.9-93.8-15.5-114.7C1028.2,390.3,994.5,395.3,972.8,421.1z"/>
	<path fill="#7F8C8D" d="M757.1,214.2c0,1.8,0.8,1.2,1.8,0.7c8.2-4.5,16.7-8,26-9.2c18-2.4,34.4,1.6,49.4,12.1
		c11.7,8.2,20.5,18.6,24.9,32.1c6.4,19.3,5.8,38.5-4.3,56.7c-0.7,1.3-2.9,2.7-0.9,4.7c25.2-21,31-55.7,16.3-84.1
		c-10.6-20.4-27.4-32.9-50.6-36.1C794.6,187.6,774,196,757.1,214.2z"/>
	<path fill="#7F8C8D" d="M991.8-34.9c0.8,1.1,1.6,0.7,2.5,0.1c21.9-15.1,54.9-13.4,75.7,2.3c2.6,1.9,5.8,3.1,8,5.3
		c21.9,22.4,26.6,53.3,14.3,80.5c-1.4,3-4.5,5.2-4.3,8.9c30.8-24.8,34.7-69.4,8.7-98.9c-13.6-15.4-30.3-22.9-51.2-23
		C1023.3-59.8,1006.1-50.9,991.8-34.9z"/>
	<path fill="#94A5A5" d="M1174,481.2c-9.3,5.8-12.8,21.5-10.7,29.1c3.3,12,10.6,20.3,23.5,22.9c11.5,2.4,20.6-1.7,28.2-10
		c3.4-7.9,4.1-15.7,1.3-24.1c-2.1-6.2-6-10.7-10.8-14.4c-2.8-2.1-4.2-4.1-3.5-7.6c-0.4-1.4-3.1-0.6-2.7-2.9c0.1-0.5-0.4-0.6-1.3,1
		c-2.9,2.8-6.3,4.1-10.4,3.6C1182.8,478.2,1178.6,480.4,1174,481.2z"/>
	<path fill="#94A5A5" d="M830.4,95.8c-6.1-0.9-11.4,1.4-16.6,4.2c-2.1,0.2-6.9,8.1-7.5,10.6c-1.1,5.2,1.5,9.5-0.8,9.2
		c-2.5,11.6,5.1,23,15.9,28.5c11.3,5.7,25.4,2.7,34.5-7c2.2-5.2,3.5-10.5,3.3-16.3c-0.2-7.8-3-14.2-8.1-19.8
		C847.3,100.9,835.7,96.6,830.4,95.8z"/>
	<path fill="#B1B2B3" d="M1090.6,73.5c-33.7,21.1-69.2,17.1-93.6-3.1c-36-29.9-38.5-66.5-17.9-106.6c-19,20.1-26.5,43.9-20.6,70.9
		c7.2,33.4,31.7,54.5,59.4,60.3C1046,100.9,1070.2,93.4,1090.6,73.5z"/>
	<path fill="#B1B2B3" d="M1254,260.1c-33.1,15.7-61.2,10.9-82.2-19.2c-9.5-13.5-15.2-36.4,0.7-63.9c-11.2,6.2-21.6,30.9-19.5,47.2
		c3.5,26.1,17.3,44.5,42.7,52.1C1216.2,282.4,1241,276.2,1254,260.1z"/>
	<path fill="#7F8C8D" d="M678.9,119.1c4.1-0.4,7.1-3.3,10.8-4.6c31.1-10.9,65,11.2,65.4,44.1c0.1,10.1-1.7,19.4-7.1,28
		c-0.4,0.6-0.7,1.1,0,1.7c25.5-22.9,22-62.1-7.1-80.1c-14.7-9.1-37.6-8.2-51.6,1.7C685.5,112.7,681.8,115.4,678.9,119.1z"/>
	<path fill="#7F8C8D" d="M1185.2,177.3c3.1,1,5-1.8,7.4-2.7c30.6-12.1,60.7,5.6,67.4,34.9c2.7,11.9,0.4,23.1-4.8,33.8
		c-0.5,0.9-1.9,1.8-0.2,2.9c9.6-9,15.2-20.1,15.9-33.3c1-20.3-11.2-40.5-28.3-47.6C1221.6,156.4,1200.9,160.8,1185.2,177.3z"/>
	<path fill="#B2B3B2" d="M853.2,156.3c-5.3,1-10.1,3.6-15.5,4.1c-11.5,1.2-21.1-2.1-29.6-9.6c-11.8-10.4-15.5-23.3-12-38.5
		c0.4-1.8,0.2-3.2-1.5-3.6c-2.1-0.6-1.8,1.6-2.1,2.6c-5.7,17.9-2.5,33.7,12.2,45.9c11.8,9.8,29,10.8,42.7,4c2.2-1.1,4.2-2.5,6.3-3.7
		C853.5,157.1,853.4,156.7,853.2,156.3z"/>
	<path fill="#7F8C8D" d="M1202,477.1c-0.6,1-1.1,2-1.9,2.9c-1.5,1.5-1.1,2.2,0.7,3.2c14.1,8,19.1,21.1,14.2,36.5
		c-0.3,1.1-1.7,2.4,0,3.5c10.5-14.6,9-30.2-4.2-41.8C1208.3,479.2,1205.5,477.4,1202,477.1z"/>
	<path fill="#737D83" d="M851,97.1c14.2,10.5,16.4,31.7,5,44.2c-1.8-1.5-0.1-2.7,0.4-3.9c4.5-11.5,1.3-25.1-7.8-33.2
		c-0.8-0.8-9.6-7.2-14.3-6.7c-1.2,0.1-2.6-0.2-3.9-0.4c-5.9-1.2-11,2.2-16.6,3C823.3,91.6,837.7,88.4,851,97.1z"/>
	<path fill="#7F8C8D" d="M1174,481.2c7.2,0,14.3-0.9,21.3-2.1c1.3-0.2,2.6-2,2.6-3.9C1189.3,474.5,1181.1,475.4,1174,481.2z"/>
</g>
</svg>
