<?xml version="1.0" encoding="utf-8"?>
<!-- Generator: Adobe Illustrator 19.2.1, SVG Export Plug-In . SVG Version: 6.00 Build 0)  -->
<!DOCTYPE svg PUBLIC "-//W3C//DTD SVG 1.1//EN" "http://www.w3.org/Graphics/SVG/1.1/DTD/svg11.dtd">
<svg version="1.1" xmlns="http://www.w3.org/2000/svg" xmlns:xlink="http://www.w3.org/1999/xlink" x="0px" y="0px"
	 viewBox="0 0 209.8 197.8" enable-background="new 0 0 209.8 197.8" xml:space="preserve">
<g id="Layer_1">
</g>
<g id="Layer_2">
	<g>
		<g>
			<path fill="#FFFFFF" d="M203.2,45c1.9-1,1.9-3.5,0-4.5c-1.1-0.6-2.1-1.1-3.1-1.6c-20.6-9.7-41.2-19.2-61.6-29
				c-3.6-1.7-6.4-1.8-9.9,0c-4.6,2.5-16.7,8.5-21.8,10.9c-2,0.9-2,3.7,0,4.6c11.6,5.5,22.5,10.6,33.3,15.7
				c10.8,5.1,21.7,10,32.4,15.3c3.6,1.8,6.4,1.6,9.8-0.3C186.5,53.6,198.3,47.5,203.2,45z"/>
			<path fill="#FFFFFF" d="M177.2,60.6c-2,0-4-0.5-6.1-1.5c-7.4-3.7-15-7.2-22.3-10.6c-3.3-1.5-6.7-3.1-10-4.6
				c-8.5-4-17-8-25.8-12.2l-7.5-3.5c-2-0.9-3.2-2.8-3.2-5c0-2.2,1.2-4.1,3.2-5c5.1-2.4,17.2-8.4,21.7-10.8c4.2-2.3,8-2.3,12.5-0.1
				c14.4,6.9,29,13.8,43.2,20.4c6.1,2.9,12.3,5.7,18.4,8.6c1.2,0.5,2.3,1.1,3.2,1.6c1.8,1,3,2.8,3,4.9c0,2.1-1.2,3.9-3,4.9l0,0
				c-4.5,2.3-16.6,8.5-20.9,11C181.5,59.9,179.3,60.6,177.2,60.6z M108.8,23.1l6.7,3.1c8.8,4.2,17.3,8.2,25.8,12.2
				c3.3,1.6,6.6,3.1,9.9,4.6c7.4,3.4,15.1,7,22.5,10.7c2.6,1.3,4.4,1.2,7-0.3c4.2-2.4,15-8,20.4-10.7c-0.7-0.4-1.5-0.8-2.3-1.1
				c-6.1-2.9-12.3-5.8-18.4-8.6c-14.2-6.6-28.9-13.5-43.3-20.4c-2.9-1.4-4.7-1.4-7.2,0C125.6,14.9,114.4,20.5,108.8,23.1z
				 M201.8,42.4C201.8,42.4,201.8,42.4,201.8,42.4C201.8,42.4,201.8,42.4,201.8,42.4L201.8,42.4z"/>
		</g>
		<g>
			<path fill="#FFFFFF" d="M5.7,45.1c-1.9-1-1.9-3.6,0-4.5C6.8,40,7.8,39.5,8.9,39c20.7-9.7,41.5-19.4,62.2-29.3
				c3.6-1.7,6.4-1.9,9.9,0c4.6,2.5,16.8,8.5,22,11c2,0.9,2,3.7,0,4.6C91.4,30.9,80.4,36,69.5,41.2c-10.9,5.1-21.9,10-32.7,15.4
				c-3.7,1.8-6.5,1.6-9.9-0.4C22.6,53.8,10.6,47.6,5.7,45.1z"/>
			<path fill="#FFFFFF" d="M25.4,58.9c-4.3-2.5-16.5-8.7-21-11.1l0,0c-1.9-1-3-2.8-3-4.9c0-2.1,1.1-4,3-4.9c1-0.5,2.1-1.1,3.3-1.6
				c6.2-2.9,12.4-5.8,18.6-8.7C40.5,20.9,55.3,14,69.8,7c4.6-2.2,8.4-2.2,12.7,0.1C87,9.6,99.2,15.6,104.4,18c2,0.9,3.2,2.9,3.2,5
				c0,2.2-1.2,4.1-3.2,5l-7.6,3.6c-8.9,4.2-17.5,8.3-26.1,12.3c-3.3,1.6-6.7,3.1-10.1,4.7c-7.4,3.4-15.1,7-22.6,10.7
				c-2.1,1.1-4.2,1.6-6.2,1.6C29.8,60.8,27.7,60.2,25.4,58.9z M79.6,12.4c-2.5-1.4-4.3-1.3-7.2,0c-14.5,7-29.3,13.9-43.7,20.6
				c-6.2,2.9-12.4,5.8-18.6,8.7c-0.8,0.4-1.6,0.8-2.3,1.1c5.4,2.8,16.3,8.4,20.5,10.8c2.6,1.5,4.4,1.6,7,0.3
				c7.5-3.8,15.2-7.3,22.7-10.8c3.3-1.6,6.7-3.1,10-4.7c8.6-4,17.1-8.1,26.1-12.3L101,23C95.4,20.4,84,14.8,79.6,12.4z M7.1,42.5
				C7.1,42.5,7.1,42.5,7.1,42.5C7.1,42.5,7.1,42.5,7.1,42.5L7.1,42.5z"/>
		</g>
		<path fill="#FFFFFF" d="M98.5,195.5l-64.4-32.2c-4.1-2.1-6.7-6.3-6.7-10.9V64.3c0-4.7,2.7-9,7-11l64.9-30.7
			c3.3-1.6,7.1-1.6,10.4,0l64.8,30.7c4.3,2,7,6.3,7,11v88.1c0,4.6-2.6,8.9-6.8,10.9l-65.3,32.2C105.9,197.2,101.9,197.2,98.5,195.5z
			 M41.1,159l57.4,28.7c3.4,1.7,7.4,1.7,10.9,0l58.3-28.8c4.2-2.1,6.8-6.3,6.8-10.9V68.7c0-4.7-2.7-9-7-11l-57.8-27.4
			c-3.3-1.6-7.1-1.6-10.4,0L41.4,57.7c-4.3,2-7,6.3-7,11v79.4C34.4,152.7,37,156.9,41.1,159z"/>
		<g>
			<path fill="#FFFFFF" d="M109.8,45.8c-3.2-3-3.5-3.8-3.5-3.8l-7.6,73.9c0,0,0.1,1.4,3.2,4.4c3.2,3,9.5,4.6,9.5,4.6l48.3-20.5
				l7.8-76.8l-48.5,23.2C119.1,50.8,113,48.9,109.8,45.8z"/>
			<path fill="#FFFFFF" d="M106.9,41.9c0,0,0.2,1.4,3.4,4.4c3.2,3,9.5,4.6,9.5,4.6l48.4-23.1c0,0-5.5-1.9-8.7-5
				c-3.2-3-3.4-4.4-3.4-4.4L106.9,41.9z"/>
			<line fill="#FFFFFF" x1="119.2" y1="50.3" x2="111.6" y2="124.5"/>
		</g>
		<path fill="#FFFFFF" d="M161,101c-7.4,3.4-15.1,7-22.6,10.7c-2.1,1.1-4.2,1.6-6.2,1.6c-2.1,0-4.3-0.7-6.5-2
			c-4.3-2.5-16.5-8.7-21-11.1c-0.1-0.1-0.3-0.2-0.4-0.2c-0.1,0.1-0.3,0.2-0.4,0.2c-4.6,2.4-16.8,8.6-21,11.1c-2.3,1.3-4.4,2-6.5,2
			c-2,0-4-0.5-6.2-1.6C62.7,108,55,104.4,47.6,101c-3.4-1.6-6.7-3.1-10.1-4.7c-1.2-0.6-2.5-1.2-3.7-1.8v52.9c0,4.6,2.6,8.8,6.7,10.9
			l57.4,28.7c3.4,1.7,7.4,1.7,10.9,0l58.3-28.8c4.2-2.1,6.8-6.3,6.8-10.9V95c-0.9,0.4-1.9,0.9-2.8,1.3
			C167.7,97.9,164.3,99.5,161,101z"/>
		<rect x="100.3" y="97" fill="#FFFFFF" width="7" height="99.3"/>
		<polygon fill="#FFFFFF" points="64.4,99.9 42.9,64.2 42.9,31.1 64.4,31.1 		"/>
		<g>
			<ellipse fill="#FFFFFF" cx="53.6" cy="28.8" rx="10.8" ry="6.6"/>
			<path fill="#FFFFFF" d="M53.6,37.9c-7.5,0-13.3-4-13.3-9.1s5.8-9.1,13.3-9.1s13.3,4,13.3,9.1S61.1,37.9,53.6,37.9z M53.6,24.6
				c-4.8,0-8.3,2.2-8.3,4.1s3.6,4.1,8.3,4.1s8.3-2.2,8.3-4.1S58.4,24.6,53.6,24.6z"/>
		</g>
		<path fill="#FFFFFF" d="M119.6,165.1V134c0-1.4,0.8-2.6,2.1-3.1l38.9-16.2c2.2-0.9,4.7,0.7,4.7,3.1v29c0,1.3-0.8,2.6-2,3.1
			l-38.9,18.3C122.1,169.2,119.6,167.6,119.6,165.1z"/>
		<path fill="#FFFFFF" d="M147.3,137.9c0,0,1.5-2.3,2.6-4.4c3.8-6-0.7-7.2-3.6-2.2c-0.8,1.1-2.7,4.5-2.7,4.5s-5.4,0.8-7.8,1.2
			c-0.8,0.1-2.4,1.9-2.6,2.3c-0.3,0.6-0.1,1,0.5,1.1c2.8,0.2,7.5,0.4,7.5,0.4l-2.6,4.9c-1,0.2-2.5,0.3-3.2,0.4
			c-0.5,0.1-1.7,1.3-1.9,1.6c-0.2,0.4-0.1,0.7,0.3,0.8c1.6,0.1,3.4,0.1,4.4,0.1c0.4,1,1.3,3,2,4.3c0.2,0.4,0.5,0.3,0.8,0
			c0.2-0.3,0.9-1.8,0.8-2.3c-0.2-0.7-0.6-2.2-0.8-3.3l3.7-5.2c0,0,2.1,2.9,3.7,4.9c0.4,0.5,0.8,0.4,1.2-0.1c0.2-0.3,0.6-1.4,0.8-2.3
			c0.1-0.4,0.1-0.8,0-1C149.5,142,147.3,137.9,147.3,137.9z"/>
		<g>
			<g>
				<polygon fill="#FFFFFF" points="92.9,88.7 64.5,73.8 64.5,15.3 92.9,15.3 				"/>
				<path fill="#FFFFFF" d="M95.9,93.7l-34.4-18V12.3h34.4V93.7z M67.5,72l22.4,11.7V18.3H67.5V72z"/>
			</g>
			<g>
				<ellipse fill="#FFFFFF" cx="78.7" cy="12.3" rx="14.3" ry="8.8"/>
				<path fill="#FFFFFF" d="M78.7,24.1c-9.7,0-17.3-5.2-17.3-11.8S69,0.6,78.7,0.6s17.3,5.2,17.3,11.8S88.4,24.1,78.7,24.1z
					 M78.7,6.6c-6.4,0-11.3,3-11.3,5.8s4.8,5.8,11.3,5.8c6.4,0,11.3-3,11.3-5.8S85.1,6.6,78.7,6.6z"/>
			</g>
		</g>
		<g>
			<path fill="#FFFFFF" d="M103.1,98.1c1.9-1,1.9-3.6,0-4.5C102,93,101,92.5,100,92c-20.7-9.7-41.5-19.4-62.2-29.3
				c-3.6-1.7-6.4-1.9-9.9,0c-4.6,2.5-16.8,8.5-22,11c-2,0.9-2,3.7,0,4.6c11.7,5.5,22.7,10.7,33.6,15.9c10.9,5.1,21.9,10,32.7,15.4
				c3.7,1.8,6.5,1.6,9.9-0.4C86.3,106.8,98.2,100.7,103.1,98.1z"/>
			<path fill="#FFFFFF" d="M76.9,113.9c-2,0-4-0.5-6.2-1.6c-7.4-3.7-15.1-7.3-22.6-10.7c-3.4-1.6-6.7-3.1-10.1-4.7
				c-8.6-4-17.1-8.1-26.1-12.3l-7.6-3.6c-2-0.9-3.2-2.9-3.2-5c0-2.2,1.2-4.1,3.2-5c5.1-2.4,17.3-8.4,21.9-10.9
				c4.2-2.3,8-2.3,12.7-0.1C53.6,67,68.4,73.9,82.7,80.6c6.2,2.9,12.4,5.8,18.6,8.7c1.2,0.6,2.3,1.1,3.3,1.6c1.9,1,3,2.9,3,4.9
				c0,2.1-1.2,4-3,4.9l0,0c-4.6,2.4-16.8,8.6-21,11.1C81.2,113.2,79.1,113.9,76.9,113.9z M7.9,76l6.7,3.2
				c8.9,4.2,17.5,8.3,26.1,12.3c3.3,1.6,6.7,3.1,10,4.7c7.5,3.5,15.2,7,22.7,10.8c2.6,1.3,4.4,1.2,7-0.3c4.2-2.4,15.1-8.1,20.5-10.8
				c-0.7-0.4-1.5-0.8-2.3-1.1c-6.2-2.9-12.4-5.8-18.6-8.7C65.8,79.3,51,72.4,36.5,65.5c-2.9-1.4-4.7-1.4-7.2,0
				C24.8,67.8,13.5,73.4,7.9,76z M101.8,95.5C101.8,95.5,101.8,95.5,101.8,95.5C101.8,95.5,101.8,95.5,101.8,95.5L101.8,95.5z"/>
		</g>
		<g>
			<path fill="#FFFFFF" d="M106.7,98.2c-1.9-1-1.9-3.6,0-4.5c1.1-0.6,2.1-1.1,3.2-1.6c20.7-9.7,41.5-19.4,62.2-29.3
				c3.6-1.7,6.4-1.9,9.9,0c4.6,2.5,16.8,8.5,22,11c2,0.9,2,3.7,0,4.6c-11.7,5.5-22.7,10.7-33.6,15.9c-10.9,5.1-21.9,10-32.7,15.4
				c-3.7,1.8-6.5,1.6-9.9-0.4C123.5,106.8,111.6,100.7,106.7,98.2z"/>
			<path fill="#FFFFFF" d="M126.4,111.9c-4.3-2.5-16.5-8.7-21-11.1l0,0c-1.9-1-3-2.8-3-4.9c0-2.1,1.1-4,3-4.9c1-0.5,2.1-1.1,3.3-1.6
				c6.2-2.9,12.4-5.8,18.6-8.7c14.3-6.7,29.1-13.6,43.6-20.6c4.6-2.2,8.4-2.2,12.7,0.1c4.6,2.5,16.8,8.5,21.9,10.9
				c2,0.9,3.2,2.9,3.2,5c0,2.2-1.2,4.1-3.2,5l-7.6,3.6c-8.9,4.2-17.5,8.3-26.1,12.3c-3.3,1.6-6.7,3.1-10.1,4.7
				c-7.4,3.4-15.1,7-22.6,10.7c-2.1,1.1-4.2,1.6-6.2,1.6C130.8,113.9,128.6,113.2,126.4,111.9z M180.6,65.4c-2.5-1.4-4.3-1.3-7.2,0
				c-14.5,7-29.3,13.9-43.7,20.6c-6.2,2.9-12.4,5.8-18.6,8.7c-0.8,0.4-1.6,0.8-2.3,1.1c5.4,2.8,16.3,8.4,20.5,10.8
				c2.6,1.5,4.4,1.6,7,0.3c7.5-3.8,15.2-7.3,22.7-10.8c3.3-1.6,6.7-3.1,10-4.7c8.6-4,17.1-8.1,26.1-12.3l6.7-3.2
				C196.3,73.4,185,67.8,180.6,65.4z M108.1,95.5C108.1,95.5,108.1,95.5,108.1,95.5C108.1,95.5,108.1,95.5,108.1,95.5L108.1,95.5z"
				/>
		</g>
	</g>
</g>
</svg>
